<mxfile host="Electron" modified="2023-04-11T17:10:07.337Z" agent="Mozilla/5.0 (Macintosh; Intel Mac OS X 10_15_7) AppleWebKit/537.36 (KHTML, like Gecko) draw.io/21.1.2 Chrome/106.0.5249.199 Electron/21.4.3 Safari/537.36" etag="5grQCFcYzUYATf-9g9rm" version="21.1.2" type="device">
  <diagram name="PÃ¡gina-1" id="6_bxXHLZSpz3M8hgku7d">
    <mxGraphModel dx="2393" dy="974" grid="1" gridSize="10" guides="1" tooltips="1" connect="1" arrows="1" fold="1" page="0" pageScale="1" pageWidth="1169" pageHeight="1654" math="0" shadow="0">
      <root>
        <mxCell id="0" />
        <mxCell id="1" parent="0" />
        <mxCell id="fqlg9fqf1xDDoRxvzRg2-5" value="" style="endArrow=none;html=1;rounded=0;entryX=1;entryY=1;entryDx=0;entryDy=0;exitX=0;exitY=0.5;exitDx=0;exitDy=0;labelBackgroundColor=none;fontColor=default;" parent="1" source="fqlg9fqf1xDDoRxvzRg2-1" target="fqlg9fqf1xDDoRxvzRg2-4" edge="1">
          <mxGeometry width="50" height="50" relative="1" as="geometry">
            <mxPoint x="210" y="979" as="sourcePoint" />
            <mxPoint x="116" y="809" as="targetPoint" />
          </mxGeometry>
        </mxCell>
        <mxCell id="fqlg9fqf1xDDoRxvzRg2-34" value="1" style="edgeLabel;html=1;align=center;verticalAlign=middle;resizable=0;points=[];labelBackgroundColor=none;" parent="fqlg9fqf1xDDoRxvzRg2-5" vertex="1" connectable="0">
          <mxGeometry x="0.2958" y="-3" relative="1" as="geometry">
            <mxPoint x="40" y="40" as="offset" />
          </mxGeometry>
        </mxCell>
        <mxCell id="fqlg9fqf1xDDoRxvzRg2-7" value="" style="endArrow=none;html=1;rounded=0;entryX=1;entryY=0.5;entryDx=0;entryDy=0;exitX=0;exitY=0.5;exitDx=0;exitDy=0;shape=link;labelBackgroundColor=none;fontColor=default;" parent="1" source="fqlg9fqf1xDDoRxvzRg2-6" target="fqlg9fqf1xDDoRxvzRg2-1" edge="1">
          <mxGeometry width="50" height="50" relative="1" as="geometry">
            <mxPoint x="349" y="1140" as="sourcePoint" />
            <mxPoint x="250" y="1030" as="targetPoint" />
          </mxGeometry>
        </mxCell>
        <mxCell id="fqlg9fqf1xDDoRxvzRg2-35" value="1" style="edgeLabel;html=1;align=center;verticalAlign=middle;resizable=0;points=[];labelBackgroundColor=none;" parent="fqlg9fqf1xDDoRxvzRg2-7" vertex="1" connectable="0">
          <mxGeometry x="0.7594" y="-1" relative="1" as="geometry">
            <mxPoint x="-1" y="-13" as="offset" />
          </mxGeometry>
        </mxCell>
        <mxCell id="fqlg9fqf1xDDoRxvzRg2-10" value="" style="rounded=0;whiteSpace=wrap;html=1;labelBackgroundColor=none;" parent="1" vertex="1">
          <mxGeometry x="329" y="1100" width="100" height="60" as="geometry" />
        </mxCell>
        <mxCell id="fqlg9fqf1xDDoRxvzRg2-3" value="" style="endArrow=none;html=1;rounded=0;entryX=0.75;entryY=1;entryDx=0;entryDy=0;exitX=0.5;exitY=0;exitDx=0;exitDy=0;labelBackgroundColor=none;fontColor=default;" parent="1" source="fqlg9fqf1xDDoRxvzRg2-6" target="da1oWvqafKojglBcWh3I-168" edge="1">
          <mxGeometry width="50" height="50" relative="1" as="geometry">
            <mxPoint x="650" y="1030" as="sourcePoint" />
            <mxPoint x="320" y="860" as="targetPoint" />
          </mxGeometry>
        </mxCell>
        <mxCell id="fqlg9fqf1xDDoRxvzRg2-36" value="1" style="edgeLabel;html=1;align=center;verticalAlign=middle;resizable=0;points=[];labelBackgroundColor=none;" parent="fqlg9fqf1xDDoRxvzRg2-3" vertex="1" connectable="0">
          <mxGeometry x="0.6688" relative="1" as="geometry">
            <mxPoint x="-33" y="-27" as="offset" />
          </mxGeometry>
        </mxCell>
        <mxCell id="fqlg9fqf1xDDoRxvzRg2-8" value="" style="rhombus;whiteSpace=wrap;html=1;labelBackgroundColor=none;" parent="1" vertex="1">
          <mxGeometry x="600" y="1030" width="120" height="100" as="geometry" />
        </mxCell>
        <mxCell id="fqlg9fqf1xDDoRxvzRg2-2" value="" style="endArrow=none;html=1;rounded=0;entryX=0.83;entryY=0.97;entryDx=0;entryDy=0;entryPerimeter=0;exitX=0.347;exitY=0.116;exitDx=0;exitDy=0;exitPerimeter=0;shape=link;labelBackgroundColor=none;fontColor=default;" parent="1" source="fqlg9fqf1xDDoRxvzRg2-4" target="da1oWvqafKojglBcWh3I-37" edge="1">
          <mxGeometry width="50" height="50" relative="1" as="geometry">
            <mxPoint x="190" y="950" as="sourcePoint" />
            <mxPoint x="320" y="860" as="targetPoint" />
          </mxGeometry>
        </mxCell>
        <mxCell id="fqlg9fqf1xDDoRxvzRg2-33" value="1" style="edgeLabel;html=1;align=center;verticalAlign=middle;resizable=0;points=[];labelBackgroundColor=none;" parent="fqlg9fqf1xDDoRxvzRg2-2" vertex="1" connectable="0">
          <mxGeometry x="0.7587" y="-1" relative="1" as="geometry">
            <mxPoint x="6" y="-7" as="offset" />
          </mxGeometry>
        </mxCell>
        <mxCell id="fqlg9fqf1xDDoRxvzRg2-9" value="" style="rhombus;whiteSpace=wrap;html=1;labelBackgroundColor=none;" parent="1" vertex="1">
          <mxGeometry x="160" y="940" width="120" height="100" as="geometry" />
        </mxCell>
        <mxCell id="da1oWvqafKojglBcWh3I-227" value="" style="endArrow=none;html=1;rounded=0;entryX=0.5;entryY=1;entryDx=0;entryDy=0;exitX=0.75;exitY=0;exitDx=0;exitDy=0;labelBackgroundColor=none;fontColor=default;" parent="1" source="da1oWvqafKojglBcWh3I-217" target="da1oWvqafKojglBcWh3I-222" edge="1">
          <mxGeometry width="50" height="50" relative="1" as="geometry">
            <mxPoint x="-260" y="440" as="sourcePoint" />
            <mxPoint x="-210" y="390" as="targetPoint" />
          </mxGeometry>
        </mxCell>
        <mxCell id="da1oWvqafKojglBcWh3I-228" value="" style="endArrow=none;html=1;rounded=0;entryX=0.5;entryY=0;entryDx=0;entryDy=0;labelBackgroundColor=none;fontColor=default;" parent="1" target="da1oWvqafKojglBcWh3I-221" edge="1">
          <mxGeometry width="50" height="50" relative="1" as="geometry">
            <mxPoint x="-240" y="360" as="sourcePoint" />
            <mxPoint x="-210" y="390" as="targetPoint" />
          </mxGeometry>
        </mxCell>
        <mxCell id="da1oWvqafKojglBcWh3I-218" value="" style="shape=link;html=1;rounded=0;entryX=0;entryY=0;entryDx=0;entryDy=0;exitX=1;exitY=0.5;exitDx=0;exitDy=0;labelBackgroundColor=none;fontColor=default;" parent="1" source="da1oWvqafKojglBcWh3I-217" target="da1oWvqafKojglBcWh3I-215" edge="1">
          <mxGeometry width="100" relative="1" as="geometry">
            <mxPoint x="-250" y="410" as="sourcePoint" />
            <mxPoint x="-150" y="410" as="targetPoint" />
          </mxGeometry>
        </mxCell>
        <mxCell id="DlQMh5f5OhYwJNWLFFVG-21" value="" style="rounded=0;whiteSpace=wrap;html=1;labelBackgroundColor=none;" parent="1" vertex="1">
          <mxGeometry x="-290" y="310" width="100" height="60" as="geometry" />
        </mxCell>
        <mxCell id="da1oWvqafKojglBcWh3I-216" value="" style="shape=link;html=1;rounded=0;exitX=1;exitY=1;exitDx=0;exitDy=0;entryX=-0.106;entryY=0.937;entryDx=0;entryDy=0;entryPerimeter=0;labelBackgroundColor=none;fontColor=default;" parent="1" source="da1oWvqafKojglBcWh3I-215" target="da1oWvqafKojglBcWh3I-109" edge="1">
          <mxGeometry width="100" relative="1" as="geometry">
            <mxPoint x="-150" y="430" as="sourcePoint" />
            <mxPoint x="60" y="520" as="targetPoint" />
          </mxGeometry>
        </mxCell>
        <mxCell id="DlQMh5f5OhYwJNWLFFVG-20" value="" style="rhombus;whiteSpace=wrap;html=1;labelBackgroundColor=none;" parent="1" vertex="1">
          <mxGeometry x="-155" y="370" width="120" height="100" as="geometry" />
        </mxCell>
        <mxCell id="QSSLg1convwjqRiPNhS1-15" style="edgeStyle=orthogonalEdgeStyle;rounded=0;orthogonalLoop=1;jettySize=auto;html=1;exitX=1;exitY=0.5;exitDx=0;exitDy=0;entryX=0;entryY=0.5;entryDx=0;entryDy=0;endArrow=none;endFill=0;labelBackgroundColor=none;fontColor=default;" parent="1" source="QSSLg1convwjqRiPNhS1-13" target="da1oWvqafKojglBcWh3I-217" edge="1">
          <mxGeometry relative="1" as="geometry" />
        </mxCell>
        <mxCell id="QSSLg1convwjqRiPNhS1-21" value="1" style="edgeLabel;html=1;align=center;verticalAlign=middle;resizable=0;points=[];labelBackgroundColor=none;" parent="QSSLg1convwjqRiPNhS1-15" vertex="1" connectable="0">
          <mxGeometry x="0.0084" relative="1" as="geometry">
            <mxPoint x="5" y="-10" as="offset" />
          </mxGeometry>
        </mxCell>
        <mxCell id="QSSLg1convwjqRiPNhS1-13" value="" style="rhombus;whiteSpace=wrap;html=1;labelBackgroundColor=none;" parent="1" vertex="1">
          <mxGeometry x="-450" y="290" width="120" height="100" as="geometry" />
        </mxCell>
        <mxCell id="QSSLg1convwjqRiPNhS1-14" style="edgeStyle=orthogonalEdgeStyle;rounded=0;orthogonalLoop=1;jettySize=auto;html=1;exitX=1;exitY=0.5;exitDx=0;exitDy=0;entryX=0;entryY=0.5;entryDx=0;entryDy=0;endArrow=classic;endFill=1;shape=link;labelBackgroundColor=none;fontColor=default;" parent="1" source="QSSLg1convwjqRiPNhS1-11" target="QSSLg1convwjqRiPNhS1-13" edge="1">
          <mxGeometry relative="1" as="geometry" />
        </mxCell>
        <mxCell id="QSSLg1convwjqRiPNhS1-23" value="N" style="edgeLabel;html=1;align=center;verticalAlign=middle;resizable=0;points=[];labelBackgroundColor=none;" parent="QSSLg1convwjqRiPNhS1-14" vertex="1" connectable="0">
          <mxGeometry x="-0.1246" y="3" relative="1" as="geometry">
            <mxPoint x="-16" y="-7" as="offset" />
          </mxGeometry>
        </mxCell>
        <mxCell id="QSSLg1convwjqRiPNhS1-11" value="" style="rounded=0;whiteSpace=wrap;html=1;labelBackgroundColor=none;" parent="1" vertex="1">
          <mxGeometry x="-610" y="310" width="100" height="60" as="geometry" />
        </mxCell>
        <mxCell id="da1oWvqafKojglBcWh3I-209" value="" style="endArrow=none;html=1;rounded=0;entryX=0.09;entryY=1.03;entryDx=0;entryDy=0;exitX=1;exitY=0.5;exitDx=0;exitDy=0;entryPerimeter=0;labelBackgroundColor=none;fontColor=default;" parent="1" source="VaJHr-X6yvSGsGyUoXcg-7" target="da1oWvqafKojglBcWh3I-182" edge="1">
          <mxGeometry width="50" height="50" relative="1" as="geometry">
            <mxPoint x="385" y="1040" as="sourcePoint" />
            <mxPoint x="400" y="930" as="targetPoint" />
          </mxGeometry>
        </mxCell>
        <mxCell id="da1oWvqafKojglBcWh3I-214" value="" style="endArrow=none;html=1;rounded=0;entryX=0;entryY=0;entryDx=0;entryDy=0;exitX=0.616;exitY=1.057;exitDx=0;exitDy=0;exitPerimeter=0;labelBackgroundColor=none;fontColor=default;" parent="1" source="da1oWvqafKojglBcWh3I-182" target="da1oWvqafKojglBcWh3I-206" edge="1">
          <mxGeometry width="50" height="50" relative="1" as="geometry">
            <mxPoint x="350" y="980" as="sourcePoint" />
            <mxPoint x="400" y="930" as="targetPoint" />
          </mxGeometry>
        </mxCell>
        <mxCell id="da1oWvqafKojglBcWh3I-213" value="" style="endArrow=none;html=1;rounded=0;entryX=0;entryY=0.5;entryDx=0;entryDy=0;exitX=1;exitY=0.5;exitDx=0;exitDy=0;labelBackgroundColor=none;fontColor=default;" parent="1" source="da1oWvqafKojglBcWh3I-182" target="da1oWvqafKojglBcWh3I-207" edge="1">
          <mxGeometry width="50" height="50" relative="1" as="geometry">
            <mxPoint x="350" y="980" as="sourcePoint" />
            <mxPoint x="400" y="930" as="targetPoint" />
          </mxGeometry>
        </mxCell>
        <mxCell id="da1oWvqafKojglBcWh3I-189" value="" style="shape=link;html=1;rounded=0;entryX=0.5;entryY=1;entryDx=0;entryDy=0;exitX=0.5;exitY=0;exitDx=0;exitDy=0;labelBackgroundColor=none;fontColor=default;" parent="1" source="da1oWvqafKojglBcWh3I-182" target="da1oWvqafKojglBcWh3I-181" edge="1">
          <mxGeometry width="100" relative="1" as="geometry">
            <mxPoint x="180" y="900" as="sourcePoint" />
            <mxPoint x="280" y="900" as="targetPoint" />
          </mxGeometry>
        </mxCell>
        <mxCell id="da1oWvqafKojglBcWh3I-195" value="N" style="text;html=1;align=center;verticalAlign=middle;resizable=0;points=[];autosize=1;strokeColor=none;fillColor=none;labelBackgroundColor=none;" parent="1" vertex="1">
          <mxGeometry x="410" y="930" width="30" height="30" as="geometry" />
        </mxCell>
        <mxCell id="vwqwgOsk305iZyYUviN2-85" value="" style="rounded=0;whiteSpace=wrap;html=1;labelBackgroundColor=none;" parent="1" vertex="1">
          <mxGeometry x="390" y="950" width="100" height="60" as="geometry" />
        </mxCell>
        <mxCell id="da1oWvqafKojglBcWh3I-188" value="" style="endArrow=none;html=1;rounded=0;entryX=0.5;entryY=1;entryDx=0;entryDy=0;exitX=0.5;exitY=0;exitDx=0;exitDy=0;labelBackgroundColor=none;fontColor=default;" parent="1" source="da1oWvqafKojglBcWh3I-181" target="da1oWvqafKojglBcWh3I-168" edge="1">
          <mxGeometry width="50" height="50" relative="1" as="geometry">
            <mxPoint x="210" y="850" as="sourcePoint" />
            <mxPoint x="260" y="800" as="targetPoint" />
          </mxGeometry>
        </mxCell>
        <mxCell id="vwqwgOsk305iZyYUviN2-84" value="" style="rhombus;whiteSpace=wrap;html=1;labelBackgroundColor=none;" parent="1" vertex="1">
          <mxGeometry x="380" y="830" width="120" height="100" as="geometry" />
        </mxCell>
        <mxCell id="da1oWvqafKojglBcWh3I-165" value="" style="endArrow=none;html=1;rounded=0;exitX=0.5;exitY=0;exitDx=0;exitDy=0;entryX=0.5;entryY=1;entryDx=0;entryDy=0;shape=link;labelBackgroundColor=none;fontColor=default;" parent="1" source="da1oWvqafKojglBcWh3I-62" target="da1oWvqafKojglBcWh3I-61" edge="1">
          <mxGeometry width="50" height="50" relative="1" as="geometry">
            <mxPoint x="90" y="940.0000000000002" as="sourcePoint" />
            <mxPoint x="90" y="810.0000000000002" as="targetPoint" />
          </mxGeometry>
        </mxCell>
        <mxCell id="vwqwgOsk305iZyYUviN2-79" value="" style="rounded=0;whiteSpace=wrap;html=1;labelBackgroundColor=none;" parent="1" vertex="1">
          <mxGeometry x="30" y="1060" width="100" height="60" as="geometry" />
        </mxCell>
        <mxCell id="da1oWvqafKojglBcWh3I-92" value="" style="endArrow=none;html=1;rounded=0;entryX=0.5;entryY=1;entryDx=0;entryDy=0;exitX=0.5;exitY=0;exitDx=0;exitDy=0;shape=link;labelBackgroundColor=none;fontColor=default;" parent="1" source="da1oWvqafKojglBcWh3I-88" target="da1oWvqafKojglBcWh3I-90" edge="1">
          <mxGeometry width="50" height="50" relative="1" as="geometry">
            <mxPoint x="50" y="450" as="sourcePoint" />
            <mxPoint x="100" y="400" as="targetPoint" />
          </mxGeometry>
        </mxCell>
        <mxCell id="vwqwgOsk305iZyYUviN2-76" value="" style="rounded=0;whiteSpace=wrap;html=1;labelBackgroundColor=none;" parent="1" vertex="1">
          <mxGeometry x="30" y="270" width="100" height="60" as="geometry" />
        </mxCell>
        <mxCell id="da1oWvqafKojglBcWh3I-91" value="" style="endArrow=none;html=1;rounded=0;entryX=0.5;entryY=1;entryDx=0;entryDy=0;exitX=0.5;exitY=0;exitDx=0;exitDy=0;labelBackgroundColor=none;fontColor=default;" parent="1" source="da1oWvqafKojglBcWh3I-1" target="da1oWvqafKojglBcWh3I-88" edge="1">
          <mxGeometry width="50" height="50" relative="1" as="geometry">
            <mxPoint x="50" y="490" as="sourcePoint" />
            <mxPoint x="100" y="440" as="targetPoint" />
          </mxGeometry>
        </mxCell>
        <mxCell id="da1oWvqafKojglBcWh3I-110" value="1" style="text;html=1;align=center;verticalAlign=middle;resizable=0;points=[];autosize=1;strokeColor=none;fillColor=none;labelBackgroundColor=none;" parent="1" vertex="1">
          <mxGeometry x="75" y="325" width="30" height="30" as="geometry" />
        </mxCell>
        <mxCell id="vwqwgOsk305iZyYUviN2-74" value="" style="rhombus;whiteSpace=wrap;html=1;labelBackgroundColor=none;" parent="1" vertex="1">
          <mxGeometry x="20" y="340" width="120" height="100" as="geometry" />
        </mxCell>
        <mxCell id="da1oWvqafKojglBcWh3I-63" value="" style="endArrow=none;html=1;rounded=0;exitX=0.5;exitY=0;exitDx=0;exitDy=0;entryX=0.5;entryY=1;entryDx=0;entryDy=0;labelBackgroundColor=none;fontColor=default;" parent="1" source="da1oWvqafKojglBcWh3I-61" target="da1oWvqafKojglBcWh3I-37" edge="1">
          <mxGeometry width="50" height="50" relative="1" as="geometry">
            <mxPoint x="280" y="740" as="sourcePoint" />
            <mxPoint x="330" y="690" as="targetPoint" />
          </mxGeometry>
        </mxCell>
        <mxCell id="vwqwgOsk305iZyYUviN2-73" value="" style="rhombus;whiteSpace=wrap;html=1;labelBackgroundColor=none;" parent="1" vertex="1">
          <mxGeometry x="20" y="900" width="120" height="100" as="geometry" />
        </mxCell>
        <mxCell id="vwqwgOsk305iZyYUviN2-29" value="" style="rhombus;whiteSpace=wrap;html=1;labelBackgroundColor=none;" parent="1" vertex="1">
          <mxGeometry x="440" y="285" width="120" height="100" as="geometry" />
        </mxCell>
        <mxCell id="QSSLg1convwjqRiPNhS1-30" style="edgeStyle=orthogonalEdgeStyle;rounded=0;orthogonalLoop=1;jettySize=auto;html=1;exitX=0.5;exitY=1;exitDx=0;exitDy=0;entryX=0.5;entryY=0;entryDx=0;entryDy=0;shape=link;labelBackgroundColor=none;fontColor=default;" parent="1" source="vwqwgOsk305iZyYUviN2-28" target="vwqwgOsk305iZyYUviN2-37" edge="1">
          <mxGeometry relative="1" as="geometry" />
        </mxCell>
        <mxCell id="QSSLg1convwjqRiPNhS1-36" value="1" style="edgeLabel;html=1;align=center;verticalAlign=middle;resizable=0;points=[];labelBackgroundColor=none;" parent="QSSLg1convwjqRiPNhS1-30" vertex="1" connectable="0">
          <mxGeometry x="-0.5692" y="2" relative="1" as="geometry">
            <mxPoint x="8" y="-4" as="offset" />
          </mxGeometry>
        </mxCell>
        <mxCell id="vwqwgOsk305iZyYUviN2-28" value="" style="rounded=0;whiteSpace=wrap;html=1;labelBackgroundColor=none;" parent="1" vertex="1">
          <mxGeometry x="590" y="190" width="100" height="60" as="geometry" />
        </mxCell>
        <mxCell id="vwqwgOsk305iZyYUviN2-14" value="" style="rounded=0;whiteSpace=wrap;html=1;labelBackgroundColor=none;" parent="1" vertex="1">
          <mxGeometry x="600" y="590" width="100" height="60" as="geometry" />
        </mxCell>
        <mxCell id="vwqwgOsk305iZyYUviN2-12" value="" style="rhombus;whiteSpace=wrap;html=1;labelBackgroundColor=none;" parent="1" vertex="1">
          <mxGeometry x="590" y="690" width="120" height="100" as="geometry" />
        </mxCell>
        <mxCell id="da1oWvqafKojglBcWh3I-1" value="Team" style="rounded=0;whiteSpace=wrap;html=1;labelBackgroundColor=none;" parent="1" vertex="1">
          <mxGeometry x="40" y="520" width="80" height="40" as="geometry" />
        </mxCell>
        <mxCell id="da1oWvqafKojglBcWh3I-2" value="&lt;u&gt;ID&lt;br&gt;&lt;/u&gt;" style="ellipse;whiteSpace=wrap;html=1;labelBackgroundColor=none;" parent="1" vertex="1">
          <mxGeometry x="-60" y="490" width="80" height="40" as="geometry" />
        </mxCell>
        <mxCell id="da1oWvqafKojglBcWh3I-5" value="Name" style="ellipse;whiteSpace=wrap;html=1;labelBackgroundColor=none;" parent="1" vertex="1">
          <mxGeometry x="85" y="430" width="80" height="40" as="geometry" />
        </mxCell>
        <mxCell id="da1oWvqafKojglBcWh3I-6" value="Conference" style="ellipse;whiteSpace=wrap;html=1;labelBackgroundColor=none;" parent="1" vertex="1">
          <mxGeometry x="-75" y="560" width="70" height="40" as="geometry" />
        </mxCell>
        <mxCell id="da1oWvqafKojglBcWh3I-7" value="" style="endArrow=none;html=1;rounded=0;entryX=0.25;entryY=0;entryDx=0;entryDy=0;exitX=1;exitY=0.5;exitDx=0;exitDy=0;labelBackgroundColor=none;fontColor=default;" parent="1" source="da1oWvqafKojglBcWh3I-2" target="da1oWvqafKojglBcWh3I-1" edge="1">
          <mxGeometry width="50" height="50" relative="1" as="geometry">
            <mxPoint x="390" y="580" as="sourcePoint" />
            <mxPoint x="440" y="530" as="targetPoint" />
          </mxGeometry>
        </mxCell>
        <mxCell id="da1oWvqafKojglBcWh3I-8" value="" style="endArrow=none;html=1;rounded=0;entryX=0;entryY=0.75;entryDx=0;entryDy=0;exitX=0.5;exitY=0;exitDx=0;exitDy=0;labelBackgroundColor=none;fontColor=default;" parent="1" source="da1oWvqafKojglBcWh3I-6" target="da1oWvqafKojglBcWh3I-1" edge="1">
          <mxGeometry width="50" height="50" relative="1" as="geometry">
            <mxPoint x="390" y="580" as="sourcePoint" />
            <mxPoint x="440" y="530" as="targetPoint" />
          </mxGeometry>
        </mxCell>
        <mxCell id="da1oWvqafKojglBcWh3I-9" value="" style="endArrow=none;html=1;rounded=0;entryX=0.5;entryY=1;entryDx=0;entryDy=0;exitX=0.75;exitY=0;exitDx=0;exitDy=0;labelBackgroundColor=none;fontColor=default;" parent="1" source="da1oWvqafKojglBcWh3I-1" target="da1oWvqafKojglBcWh3I-5" edge="1">
          <mxGeometry width="50" height="50" relative="1" as="geometry">
            <mxPoint x="390" y="580" as="sourcePoint" />
            <mxPoint x="440" y="530" as="targetPoint" />
          </mxGeometry>
        </mxCell>
        <mxCell id="da1oWvqafKojglBcWh3I-11" value="" style="endArrow=none;html=1;rounded=0;exitX=1;exitY=0;exitDx=0;exitDy=0;entryX=0;entryY=0.5;entryDx=0;entryDy=0;shape=link;labelBackgroundColor=none;fontColor=default;" parent="1" source="da1oWvqafKojglBcWh3I-1" target="da1oWvqafKojglBcWh3I-10" edge="1">
          <mxGeometry width="50" height="50" relative="1" as="geometry">
            <mxPoint x="120.44999999999982" y="528.99" as="sourcePoint" />
            <mxPoint x="440" y="530" as="targetPoint" />
          </mxGeometry>
        </mxCell>
        <mxCell id="QSSLg1convwjqRiPNhS1-43" value="N" style="edgeLabel;html=1;align=center;verticalAlign=middle;resizable=0;points=[];labelBackgroundColor=none;" parent="da1oWvqafKojglBcWh3I-11" vertex="1" connectable="0">
          <mxGeometry x="-0.451" y="-1" relative="1" as="geometry">
            <mxPoint x="-10" y="-8" as="offset" />
          </mxGeometry>
        </mxCell>
        <mxCell id="da1oWvqafKojglBcWh3I-12" value="League" style="whiteSpace=wrap;html=1;labelBackgroundColor=none;" parent="1" vertex="1">
          <mxGeometry x="310" y="390" width="80" height="40" as="geometry" />
        </mxCell>
        <mxCell id="da1oWvqafKojglBcWh3I-16" value="&lt;u&gt;ID&lt;/u&gt;" style="ellipse;whiteSpace=wrap;html=1;labelBackgroundColor=none;" parent="1" vertex="1">
          <mxGeometry x="215" y="340" width="80" height="40" as="geometry" />
        </mxCell>
        <mxCell id="da1oWvqafKojglBcWh3I-18" value="Name" style="ellipse;whiteSpace=wrap;html=1;labelBackgroundColor=none;" parent="1" vertex="1">
          <mxGeometry x="295" y="305" width="80" height="40" as="geometry" />
        </mxCell>
        <mxCell id="da1oWvqafKojglBcWh3I-20" value="" style="endArrow=none;html=1;rounded=0;entryX=0;entryY=0.25;entryDx=0;entryDy=0;exitX=1;exitY=1;exitDx=0;exitDy=0;labelBackgroundColor=none;fontColor=default;" parent="1" source="da1oWvqafKojglBcWh3I-16" target="da1oWvqafKojglBcWh3I-12" edge="1">
          <mxGeometry width="50" height="50" relative="1" as="geometry">
            <mxPoint x="385" y="500" as="sourcePoint" />
            <mxPoint x="435" y="450" as="targetPoint" />
          </mxGeometry>
        </mxCell>
        <mxCell id="da1oWvqafKojglBcWh3I-24" value="" style="endArrow=none;html=1;rounded=0;entryX=0.5;entryY=1;entryDx=0;entryDy=0;exitX=0.5;exitY=0;exitDx=0;exitDy=0;labelBackgroundColor=none;fontColor=default;" parent="1" source="da1oWvqafKojglBcWh3I-12" target="da1oWvqafKojglBcWh3I-18" edge="1">
          <mxGeometry width="50" height="50" relative="1" as="geometry">
            <mxPoint x="395" y="535" as="sourcePoint" />
            <mxPoint x="405" y="510" as="targetPoint" />
          </mxGeometry>
        </mxCell>
        <mxCell id="da1oWvqafKojglBcWh3I-26" value="Found_Year" style="ellipse;whiteSpace=wrap;html=1;labelBackgroundColor=none;" parent="1" vertex="1">
          <mxGeometry x="-15" y="590" width="70" height="40" as="geometry" />
        </mxCell>
        <mxCell id="da1oWvqafKojglBcWh3I-27" value="City" style="ellipse;whiteSpace=wrap;html=1;labelBackgroundColor=none;" parent="1" vertex="1">
          <mxGeometry x="90" y="610" width="70" height="40" as="geometry" />
        </mxCell>
        <mxCell id="da1oWvqafKojglBcWh3I-28" value="Owner" style="ellipse;whiteSpace=wrap;html=1;labelBackgroundColor=none;" parent="1" vertex="1">
          <mxGeometry x="-5" y="425" width="70" height="40" as="geometry" />
        </mxCell>
        <mxCell id="da1oWvqafKojglBcWh3I-29" value="" style="endArrow=none;html=1;rounded=0;entryX=0.25;entryY=1;entryDx=0;entryDy=0;exitX=0.5;exitY=0;exitDx=0;exitDy=0;labelBackgroundColor=none;fontColor=default;" parent="1" source="da1oWvqafKojglBcWh3I-26" target="da1oWvqafKojglBcWh3I-1" edge="1">
          <mxGeometry width="50" height="50" relative="1" as="geometry">
            <mxPoint x="390" y="610" as="sourcePoint" />
            <mxPoint x="440" y="560" as="targetPoint" />
          </mxGeometry>
        </mxCell>
        <mxCell id="da1oWvqafKojglBcWh3I-31" value="" style="endArrow=none;html=1;rounded=0;entryX=0.5;entryY=1;entryDx=0;entryDy=0;labelBackgroundColor=none;fontColor=default;" parent="1" target="da1oWvqafKojglBcWh3I-28" edge="1">
          <mxGeometry width="50" height="50" relative="1" as="geometry">
            <mxPoint x="70" y="520" as="sourcePoint" />
            <mxPoint x="440" y="560" as="targetPoint" />
          </mxGeometry>
        </mxCell>
        <mxCell id="da1oWvqafKojglBcWh3I-34" value="" style="endArrow=none;html=1;rounded=0;entryX=0;entryY=0.5;entryDx=0;entryDy=0;exitX=1;exitY=0;exitDx=0;exitDy=0;labelBackgroundColor=none;fontColor=default;" parent="1" source="da1oWvqafKojglBcWh3I-10" target="da1oWvqafKojglBcWh3I-12" edge="1">
          <mxGeometry width="50" height="50" relative="1" as="geometry">
            <mxPoint x="295" y="415" as="sourcePoint" />
            <mxPoint x="345" y="460" as="targetPoint" />
          </mxGeometry>
        </mxCell>
        <mxCell id="QSSLg1convwjqRiPNhS1-42" value="1" style="edgeLabel;html=1;align=center;verticalAlign=middle;resizable=0;points=[];labelBackgroundColor=none;" parent="da1oWvqafKojglBcWh3I-34" vertex="1" connectable="0">
          <mxGeometry x="0.3736" relative="1" as="geometry">
            <mxPoint x="-6" y="-8" as="offset" />
          </mxGeometry>
        </mxCell>
        <mxCell id="DlQMh5f5OhYwJNWLFFVG-8" style="edgeStyle=orthogonalEdgeStyle;rounded=0;orthogonalLoop=1;jettySize=auto;html=1;exitX=0;exitY=1;exitDx=0;exitDy=0;entryX=0.237;entryY=1.033;entryDx=0;entryDy=0;entryPerimeter=0;endArrow=none;endFill=0;labelBackgroundColor=none;fontColor=default;" parent="1" source="da1oWvqafKojglBcWh3I-37" target="DlQMh5f5OhYwJNWLFFVG-4" edge="1">
          <mxGeometry relative="1" as="geometry">
            <Array as="points">
              <mxPoint x="40" y="830" />
              <mxPoint x="-50" y="830" />
              <mxPoint x="-50" y="940" />
              <mxPoint x="-215" y="940" />
            </Array>
          </mxGeometry>
        </mxCell>
        <mxCell id="da1oWvqafKojglBcWh3I-37" value="Player" style="rounded=0;whiteSpace=wrap;html=1;labelBackgroundColor=none;" parent="1" vertex="1">
          <mxGeometry x="40" y="760" width="80" height="40" as="geometry" />
        </mxCell>
        <mxCell id="da1oWvqafKojglBcWh3I-38" value="Plays for" style="rhombus;whiteSpace=wrap;html=1;labelBackgroundColor=none;" parent="1" vertex="1">
          <mxGeometry x="30" y="640" width="100" height="80" as="geometry" />
        </mxCell>
        <mxCell id="da1oWvqafKojglBcWh3I-41" value="1" style="text;html=1;align=center;verticalAlign=middle;resizable=0;points=[];autosize=1;strokeColor=none;fillColor=none;labelBackgroundColor=none;" parent="1" vertex="1">
          <mxGeometry x="55" y="555" width="30" height="30" as="geometry" />
        </mxCell>
        <mxCell id="da1oWvqafKojglBcWh3I-45" value="Number" style="ellipse;whiteSpace=wrap;html=1;labelBackgroundColor=none;" parent="1" vertex="1">
          <mxGeometry x="-25" y="870" width="80" height="40" as="geometry" />
        </mxCell>
        <mxCell id="da1oWvqafKojglBcWh3I-47" value="Position" style="ellipse;whiteSpace=wrap;html=1;labelBackgroundColor=none;" parent="1" vertex="1">
          <mxGeometry x="170" y="800" width="80" height="40" as="geometry" />
        </mxCell>
        <mxCell id="da1oWvqafKojglBcWh3I-48" value="Height" style="ellipse;whiteSpace=wrap;html=1;labelBackgroundColor=none;" parent="1" vertex="1">
          <mxGeometry x="140" y="725" width="80" height="40" as="geometry" />
        </mxCell>
        <mxCell id="da1oWvqafKojglBcWh3I-49" value="Weight" style="ellipse;whiteSpace=wrap;html=1;labelBackgroundColor=none;" parent="1" vertex="1">
          <mxGeometry x="-55" y="685" width="80" height="40" as="geometry" />
        </mxCell>
        <mxCell id="da1oWvqafKojglBcWh3I-55" value="" style="endArrow=none;html=1;rounded=0;entryX=0.25;entryY=0;entryDx=0;entryDy=0;labelBackgroundColor=none;fontColor=default;" parent="1" source="da1oWvqafKojglBcWh3I-49" target="da1oWvqafKojglBcWh3I-37" edge="1">
          <mxGeometry width="50" height="50" relative="1" as="geometry">
            <mxPoint x="20" y="730" as="sourcePoint" />
            <mxPoint x="70" y="680" as="targetPoint" />
          </mxGeometry>
        </mxCell>
        <mxCell id="da1oWvqafKojglBcWh3I-57" value="" style="endArrow=none;html=1;rounded=0;entryX=0.342;entryY=1.042;entryDx=0;entryDy=0;entryPerimeter=0;labelBackgroundColor=none;fontColor=default;" parent="1" source="da1oWvqafKojglBcWh3I-45" target="da1oWvqafKojglBcWh3I-37" edge="1">
          <mxGeometry width="50" height="50" relative="1" as="geometry">
            <mxPoint x="20" y="790" as="sourcePoint" />
            <mxPoint x="70" y="740" as="targetPoint" />
          </mxGeometry>
        </mxCell>
        <mxCell id="da1oWvqafKojglBcWh3I-59" value="" style="endArrow=none;html=1;rounded=0;entryX=1;entryY=0.5;entryDx=0;entryDy=0;exitX=0;exitY=0;exitDx=0;exitDy=0;labelBackgroundColor=none;fontColor=default;" parent="1" source="da1oWvqafKojglBcWh3I-47" target="da1oWvqafKojglBcWh3I-37" edge="1">
          <mxGeometry width="50" height="50" relative="1" as="geometry">
            <mxPoint x="20" y="790" as="sourcePoint" />
            <mxPoint x="70" y="740" as="targetPoint" />
          </mxGeometry>
        </mxCell>
        <mxCell id="da1oWvqafKojglBcWh3I-60" value="" style="endArrow=none;html=1;rounded=0;entryX=1;entryY=0.25;entryDx=0;entryDy=0;exitX=0;exitY=0.5;exitDx=0;exitDy=0;labelBackgroundColor=none;fontColor=default;" parent="1" source="da1oWvqafKojglBcWh3I-48" target="da1oWvqafKojglBcWh3I-37" edge="1">
          <mxGeometry width="50" height="50" relative="1" as="geometry">
            <mxPoint x="20" y="790" as="sourcePoint" />
            <mxPoint x="70" y="740" as="targetPoint" />
          </mxGeometry>
        </mxCell>
        <mxCell id="da1oWvqafKojglBcWh3I-61" value="Records" style="rhombus;whiteSpace=wrap;html=1;labelBackgroundColor=none;" parent="1" vertex="1">
          <mxGeometry x="30" y="910" width="100" height="80" as="geometry" />
        </mxCell>
        <mxCell id="da1oWvqafKojglBcWh3I-62" value="&amp;nbsp;Average Individual&lt;br&gt;Statistics" style="rounded=0;whiteSpace=wrap;html=1;labelBackgroundColor=none;" parent="1" vertex="1">
          <mxGeometry x="40" y="1070" width="80" height="40" as="geometry" />
        </mxCell>
        <mxCell id="da1oWvqafKojglBcWh3I-65" value="1" style="text;html=1;align=center;verticalAlign=middle;resizable=0;points=[];autosize=1;strokeColor=none;fillColor=none;labelBackgroundColor=none;" parent="1" vertex="1">
          <mxGeometry x="55" y="1040" width="30" height="30" as="geometry" />
        </mxCell>
        <mxCell id="da1oWvqafKojglBcWh3I-66" value="1" style="text;html=1;align=center;verticalAlign=middle;resizable=0;points=[];autosize=1;strokeColor=none;fillColor=none;labelBackgroundColor=none;" parent="1" vertex="1">
          <mxGeometry x="75" y="800" width="30" height="30" as="geometry" />
        </mxCell>
        <mxCell id="da1oWvqafKojglBcWh3I-68" value="PPG" style="ellipse;whiteSpace=wrap;html=1;dashed=1;labelBackgroundColor=none;" parent="1" vertex="1">
          <mxGeometry x="-45" y="1080" width="40" height="20" as="geometry" />
        </mxCell>
        <mxCell id="da1oWvqafKojglBcWh3I-74" value="RPG" style="ellipse;whiteSpace=wrap;html=1;dashed=1;labelBackgroundColor=none;" parent="1" vertex="1">
          <mxGeometry x="-15" y="1040" width="40" height="20" as="geometry" />
        </mxCell>
        <mxCell id="da1oWvqafKojglBcWh3I-75" value="APG" style="ellipse;whiteSpace=wrap;html=1;dashed=1;labelBackgroundColor=none;" parent="1" vertex="1">
          <mxGeometry x="145" y="1030" width="40" height="20" as="geometry" />
        </mxCell>
        <mxCell id="da1oWvqafKojglBcWh3I-76" value="BPG" style="ellipse;whiteSpace=wrap;html=1;dashed=1;labelBackgroundColor=none;" parent="1" vertex="1">
          <mxGeometry x="165" y="1060" width="40" height="20" as="geometry" />
        </mxCell>
        <mxCell id="da1oWvqafKojglBcWh3I-77" value="FG%" style="ellipse;whiteSpace=wrap;html=1;dashed=1;labelBackgroundColor=none;" parent="1" vertex="1">
          <mxGeometry x="70" y="1140" width="40" height="20" as="geometry" />
        </mxCell>
        <mxCell id="da1oWvqafKojglBcWh3I-78" value="SPG" style="ellipse;whiteSpace=wrap;html=1;dashed=1;labelBackgroundColor=none;" parent="1" vertex="1">
          <mxGeometry x="140" y="1120" width="40" height="20" as="geometry" />
        </mxCell>
        <mxCell id="da1oWvqafKojglBcWh3I-79" value="3PT%" style="ellipse;whiteSpace=wrap;html=1;dashed=1;labelBackgroundColor=none;" parent="1" vertex="1">
          <mxGeometry x="-10" y="1130" width="40" height="20" as="geometry" />
        </mxCell>
        <mxCell id="da1oWvqafKojglBcWh3I-81" value="" style="endArrow=none;html=1;rounded=0;labelBackgroundColor=none;fontColor=default;" parent="1" edge="1">
          <mxGeometry width="50" height="50" relative="1" as="geometry">
            <mxPoint x="30" y="1090" as="sourcePoint" />
            <mxPoint y="1090" as="targetPoint" />
            <Array as="points" />
          </mxGeometry>
        </mxCell>
        <mxCell id="da1oWvqafKojglBcWh3I-82" value="" style="endArrow=none;html=1;rounded=0;entryX=0.5;entryY=1;entryDx=0;entryDy=0;exitX=-0.014;exitY=0.128;exitDx=0;exitDy=0;exitPerimeter=0;labelBackgroundColor=none;fontColor=default;" parent="1" source="vwqwgOsk305iZyYUviN2-79" target="da1oWvqafKojglBcWh3I-74" edge="1">
          <mxGeometry width="50" height="50" relative="1" as="geometry">
            <mxPoint x="90" y="1070" as="sourcePoint" />
            <mxPoint x="53.28427124745804" y="1074.142135623729" as="targetPoint" />
          </mxGeometry>
        </mxCell>
        <mxCell id="da1oWvqafKojglBcWh3I-83" value="" style="endArrow=none;html=1;rounded=0;entryX=0;entryY=0.5;entryDx=0;entryDy=0;exitX=0.993;exitY=0.14;exitDx=0;exitDy=0;exitPerimeter=0;labelBackgroundColor=none;fontColor=default;" parent="1" source="vwqwgOsk305iZyYUviN2-79" edge="1">
          <mxGeometry width="50" height="50" relative="1" as="geometry">
            <mxPoint x="120" y="1065" as="sourcePoint" />
            <mxPoint x="150" y="1045" as="targetPoint" />
          </mxGeometry>
        </mxCell>
        <mxCell id="da1oWvqafKojglBcWh3I-84" value="" style="endArrow=none;html=1;rounded=0;entryX=0;entryY=0.5;entryDx=0;entryDy=0;exitX=1.008;exitY=0.399;exitDx=0;exitDy=0;exitPerimeter=0;labelBackgroundColor=none;fontColor=default;" parent="1" source="vwqwgOsk305iZyYUviN2-79" target="da1oWvqafKojglBcWh3I-76" edge="1">
          <mxGeometry width="50" height="50" relative="1" as="geometry">
            <mxPoint x="80" y="1110" as="sourcePoint" />
            <mxPoint x="140" y="1080" as="targetPoint" />
          </mxGeometry>
        </mxCell>
        <mxCell id="da1oWvqafKojglBcWh3I-85" value="" style="endArrow=none;html=1;rounded=0;exitX=0;exitY=0.5;exitDx=0;exitDy=0;labelBackgroundColor=none;fontColor=default;" parent="1" source="da1oWvqafKojglBcWh3I-78" edge="1">
          <mxGeometry width="50" height="50" relative="1" as="geometry">
            <mxPoint x="90" y="1120" as="sourcePoint" />
            <mxPoint x="130" y="1120" as="targetPoint" />
          </mxGeometry>
        </mxCell>
        <mxCell id="da1oWvqafKojglBcWh3I-86" value="" style="endArrow=none;html=1;rounded=0;exitX=0.5;exitY=0;exitDx=0;exitDy=0;entryX=0.564;entryY=0.992;entryDx=0;entryDy=0;entryPerimeter=0;labelBackgroundColor=none;fontColor=default;" parent="1" source="da1oWvqafKojglBcWh3I-77" target="vwqwgOsk305iZyYUviN2-79" edge="1">
          <mxGeometry width="50" height="50" relative="1" as="geometry">
            <mxPoint x="100" y="1130" as="sourcePoint" />
            <mxPoint x="93.28427124745804" y="1114.142135623729" as="targetPoint" />
          </mxGeometry>
        </mxCell>
        <mxCell id="da1oWvqafKojglBcWh3I-87" value="" style="endArrow=none;html=1;rounded=0;entryX=-0.007;entryY=0.869;entryDx=0;entryDy=0;entryPerimeter=0;labelBackgroundColor=none;fontColor=default;" parent="1" source="da1oWvqafKojglBcWh3I-79" target="vwqwgOsk305iZyYUviN2-79" edge="1">
          <mxGeometry width="50" height="50" relative="1" as="geometry">
            <mxPoint x="110" y="1140" as="sourcePoint" />
            <mxPoint x="103.28427124745804" y="1124.142135623729" as="targetPoint" />
          </mxGeometry>
        </mxCell>
        <mxCell id="da1oWvqafKojglBcWh3I-88" value="Records" style="rhombus;whiteSpace=wrap;html=1;labelBackgroundColor=none;" parent="1" vertex="1">
          <mxGeometry x="30" y="350" width="100" height="80" as="geometry" />
        </mxCell>
        <mxCell id="da1oWvqafKojglBcWh3I-90" value="Average&lt;br&gt;Team&lt;br&gt;Statistics" style="rounded=0;whiteSpace=wrap;html=1;labelBackgroundColor=none;" parent="1" vertex="1">
          <mxGeometry x="40" y="280" width="80" height="40" as="geometry" />
        </mxCell>
        <mxCell id="da1oWvqafKojglBcWh3I-93" value="PPG" style="ellipse;whiteSpace=wrap;html=1;dashed=1;labelBackgroundColor=none;" parent="1" vertex="1">
          <mxGeometry x="-45" y="300" width="40" height="20" as="geometry" />
        </mxCell>
        <mxCell id="da1oWvqafKojglBcWh3I-94" value="RPG" style="ellipse;whiteSpace=wrap;html=1;dashed=1;labelBackgroundColor=none;" parent="1" vertex="1">
          <mxGeometry x="-5" y="240" width="40" height="20" as="geometry" />
        </mxCell>
        <mxCell id="da1oWvqafKojglBcWh3I-95" value="APG" style="ellipse;whiteSpace=wrap;html=1;dashed=1;labelBackgroundColor=none;" parent="1" vertex="1">
          <mxGeometry x="90" y="230" width="40" height="20" as="geometry" />
        </mxCell>
        <mxCell id="da1oWvqafKojglBcWh3I-96" value="BPG" style="ellipse;whiteSpace=wrap;html=1;dashed=1;labelBackgroundColor=none;" parent="1" vertex="1">
          <mxGeometry x="160" y="270" width="40" height="20" as="geometry" />
        </mxCell>
        <mxCell id="da1oWvqafKojglBcWh3I-97" value="SPG" style="ellipse;whiteSpace=wrap;html=1;dashed=1;labelBackgroundColor=none;" parent="1" vertex="1">
          <mxGeometry x="150" y="315" width="40" height="20" as="geometry" />
        </mxCell>
        <mxCell id="da1oWvqafKojglBcWh3I-98" value="FG%" style="ellipse;whiteSpace=wrap;html=1;dashed=1;labelBackgroundColor=none;" parent="1" vertex="1">
          <mxGeometry x="115" y="345" width="40" height="20" as="geometry" />
        </mxCell>
        <mxCell id="da1oWvqafKojglBcWh3I-99" value="3PT%" style="ellipse;whiteSpace=wrap;html=1;dashed=1;labelBackgroundColor=none;" parent="1" vertex="1">
          <mxGeometry x="5" y="345" width="40" height="20" as="geometry" />
        </mxCell>
        <mxCell id="da1oWvqafKojglBcWh3I-101" value="" style="endArrow=none;html=1;rounded=0;exitX=0.5;exitY=0;exitDx=0;exitDy=0;labelBackgroundColor=none;fontColor=default;" parent="1" source="da1oWvqafKojglBcWh3I-99" edge="1">
          <mxGeometry width="50" height="50" relative="1" as="geometry">
            <mxPoint x="10" y="370" as="sourcePoint" />
            <mxPoint x="50" y="330" as="targetPoint" />
          </mxGeometry>
        </mxCell>
        <mxCell id="da1oWvqafKojglBcWh3I-103" value="" style="endArrow=none;html=1;rounded=0;entryX=1;entryY=0.5;entryDx=0;entryDy=0;labelBackgroundColor=none;fontColor=default;" parent="1" target="da1oWvqafKojglBcWh3I-93" edge="1">
          <mxGeometry width="50" height="50" relative="1" as="geometry">
            <mxPoint x="30" y="300" as="sourcePoint" />
            <mxPoint x="60" y="320" as="targetPoint" />
          </mxGeometry>
        </mxCell>
        <mxCell id="da1oWvqafKojglBcWh3I-104" value="" style="endArrow=none;html=1;rounded=0;entryX=0.5;entryY=1;entryDx=0;entryDy=0;labelBackgroundColor=none;fontColor=default;" parent="1" target="da1oWvqafKojglBcWh3I-94" edge="1">
          <mxGeometry width="50" height="50" relative="1" as="geometry">
            <mxPoint x="30" y="270" as="sourcePoint" />
            <mxPoint x="60" y="320" as="targetPoint" />
          </mxGeometry>
        </mxCell>
        <mxCell id="da1oWvqafKojglBcWh3I-105" value="" style="endArrow=none;html=1;rounded=0;entryX=0.5;entryY=1;entryDx=0;entryDy=0;exitX=0.704;exitY=-0.039;exitDx=0;exitDy=0;exitPerimeter=0;labelBackgroundColor=none;fontColor=default;" parent="1" source="vwqwgOsk305iZyYUviN2-76" target="da1oWvqafKojglBcWh3I-95" edge="1">
          <mxGeometry width="50" height="50" relative="1" as="geometry">
            <mxPoint x="10" y="380" as="sourcePoint" />
            <mxPoint x="60" y="330" as="targetPoint" />
          </mxGeometry>
        </mxCell>
        <mxCell id="da1oWvqafKojglBcWh3I-106" value="" style="endArrow=none;html=1;rounded=0;entryX=0;entryY=0.5;entryDx=0;entryDy=0;labelBackgroundColor=none;fontColor=default;" parent="1" target="da1oWvqafKojglBcWh3I-96" edge="1">
          <mxGeometry width="50" height="50" relative="1" as="geometry">
            <mxPoint x="130" y="290" as="sourcePoint" />
            <mxPoint x="60" y="330" as="targetPoint" />
          </mxGeometry>
        </mxCell>
        <mxCell id="da1oWvqafKojglBcWh3I-107" value="" style="endArrow=none;html=1;rounded=0;entryX=0;entryY=0.5;entryDx=0;entryDy=0;exitX=1;exitY=0.75;exitDx=0;exitDy=0;labelBackgroundColor=none;fontColor=default;" parent="1" source="vwqwgOsk305iZyYUviN2-76" target="da1oWvqafKojglBcWh3I-97" edge="1">
          <mxGeometry width="50" height="50" relative="1" as="geometry">
            <mxPoint x="10" y="380" as="sourcePoint" />
            <mxPoint x="60" y="330" as="targetPoint" />
          </mxGeometry>
        </mxCell>
        <mxCell id="da1oWvqafKojglBcWh3I-108" value="" style="endArrow=none;html=1;rounded=0;exitX=0;exitY=0;exitDx=0;exitDy=0;labelBackgroundColor=none;fontColor=default;" parent="1" source="da1oWvqafKojglBcWh3I-98" edge="1">
          <mxGeometry width="50" height="50" relative="1" as="geometry">
            <mxPoint x="10" y="380" as="sourcePoint" />
            <mxPoint x="110" y="330" as="targetPoint" />
          </mxGeometry>
        </mxCell>
        <mxCell id="da1oWvqafKojglBcWh3I-109" value="1" style="text;html=1;align=center;verticalAlign=middle;resizable=0;points=[];autosize=1;strokeColor=none;fillColor=none;labelBackgroundColor=none;" parent="1" vertex="1">
          <mxGeometry x="70" y="490" width="30" height="30" as="geometry" />
        </mxCell>
        <mxCell id="da1oWvqafKojglBcWh3I-111" value="" style="shape=link;html=1;rounded=0;exitX=0.5;exitY=1;exitDx=0;exitDy=0;entryX=0.5;entryY=0;entryDx=0;entryDy=0;labelBackgroundColor=none;fontColor=default;" parent="1" source="da1oWvqafKojglBcWh3I-1" target="da1oWvqafKojglBcWh3I-38" edge="1">
          <mxGeometry width="100" relative="1" as="geometry">
            <mxPoint x="20" y="580" as="sourcePoint" />
            <mxPoint x="120" y="580" as="targetPoint" />
            <Array as="points" />
          </mxGeometry>
        </mxCell>
        <mxCell id="da1oWvqafKojglBcWh3I-112" value="" style="shape=link;html=1;rounded=0;exitX=0.5;exitY=0;exitDx=0;exitDy=0;labelBackgroundColor=none;fontColor=default;" parent="1" source="da1oWvqafKojglBcWh3I-37" target="da1oWvqafKojglBcWh3I-38" edge="1">
          <mxGeometry width="100" relative="1" as="geometry">
            <mxPoint x="79.99000000000001" y="760.0099999999998" as="sourcePoint" />
            <mxPoint x="90" y="650" as="targetPoint" />
            <Array as="points" />
          </mxGeometry>
        </mxCell>
        <mxCell id="da1oWvqafKojglBcWh3I-113" value="N" style="text;html=1;align=center;verticalAlign=middle;resizable=0;points=[];autosize=1;strokeColor=none;fillColor=none;labelBackgroundColor=none;" parent="1" vertex="1">
          <mxGeometry x="80" y="730" width="30" height="30" as="geometry" />
        </mxCell>
        <mxCell id="da1oWvqafKojglBcWh3I-114" value="Main Coached&amp;nbsp;&lt;br&gt;by" style="rhombus;whiteSpace=wrap;html=1;labelBackgroundColor=none;" parent="1" vertex="1">
          <mxGeometry x="-150" y="495" width="110" height="90" as="geometry" />
        </mxCell>
        <mxCell id="da1oWvqafKojglBcWh3I-115" value="" style="shape=link;html=1;rounded=0;entryX=0;entryY=0.5;entryDx=0;entryDy=0;exitX=1;exitY=0.5;exitDx=0;exitDy=0;labelBackgroundColor=none;fontColor=default;" parent="1" source="da1oWvqafKojglBcWh3I-114" target="da1oWvqafKojglBcWh3I-1" edge="1">
          <mxGeometry width="100" relative="1" as="geometry">
            <mxPoint x="-60" y="510" as="sourcePoint" />
            <mxPoint x="40" y="510" as="targetPoint" />
          </mxGeometry>
        </mxCell>
        <mxCell id="da1oWvqafKojglBcWh3I-116" value="1" style="text;html=1;align=center;verticalAlign=middle;resizable=0;points=[];autosize=1;strokeColor=none;fillColor=none;labelBackgroundColor=none;" parent="1" vertex="1">
          <mxGeometry x="10" y="515" width="30" height="30" as="geometry" />
        </mxCell>
        <mxCell id="DlQMh5f5OhYwJNWLFFVG-6" style="edgeStyle=orthogonalEdgeStyle;rounded=0;orthogonalLoop=1;jettySize=auto;html=1;exitX=0;exitY=0.5;exitDx=0;exitDy=0;entryX=0.7;entryY=1.05;entryDx=0;entryDy=0;entryPerimeter=0;endArrow=none;endFill=0;labelBackgroundColor=none;fontColor=default;" parent="1" source="da1oWvqafKojglBcWh3I-118" target="DlQMh5f5OhYwJNWLFFVG-4" edge="1">
          <mxGeometry relative="1" as="geometry">
            <Array as="points">
              <mxPoint x="-410" y="540" />
              <mxPoint x="-410" y="940" />
              <mxPoint x="-259" y="940" />
            </Array>
          </mxGeometry>
        </mxCell>
        <mxCell id="da1oWvqafKojglBcWh3I-118" value="Coach" style="rounded=0;whiteSpace=wrap;html=1;labelBackgroundColor=none;" parent="1" vertex="1">
          <mxGeometry x="-280" y="520" width="80" height="40" as="geometry" />
        </mxCell>
        <mxCell id="da1oWvqafKojglBcWh3I-121" value="1" style="text;html=1;align=center;verticalAlign=middle;resizable=0;points=[];autosize=1;strokeColor=none;fillColor=none;labelBackgroundColor=none;" parent="1" vertex="1">
          <mxGeometry x="-200" y="515" width="30" height="30" as="geometry" />
        </mxCell>
        <mxCell id="da1oWvqafKojglBcWh3I-130" value="" style="endArrow=none;html=1;rounded=0;entryX=0;entryY=0.5;entryDx=0;entryDy=0;exitX=0.044;exitY=0.822;exitDx=0;exitDy=0;exitPerimeter=0;labelBackgroundColor=none;fontColor=default;" parent="1" source="da1oWvqafKojglBcWh3I-121" target="da1oWvqafKojglBcWh3I-114" edge="1">
          <mxGeometry width="50" height="50" relative="1" as="geometry">
            <mxPoint x="-70" y="480" as="sourcePoint" />
            <mxPoint x="-20" y="430" as="targetPoint" />
          </mxGeometry>
        </mxCell>
        <mxCell id="da1oWvqafKojglBcWh3I-131" value="HAS-A" style="rhombus;whiteSpace=wrap;html=1;labelBackgroundColor=none;" parent="1" vertex="1">
          <mxGeometry x="-290" y="680" width="100" height="80" as="geometry" />
        </mxCell>
        <mxCell id="da1oWvqafKojglBcWh3I-132" value="" style="shape=link;html=1;rounded=0;entryX=0.5;entryY=1;entryDx=0;entryDy=0;labelBackgroundColor=none;fontColor=default;" parent="1" source="da1oWvqafKojglBcWh3I-131" target="da1oWvqafKojglBcWh3I-118" edge="1">
          <mxGeometry width="100" relative="1" as="geometry">
            <mxPoint x="-50" y="680" as="sourcePoint" />
            <mxPoint x="50" y="680" as="targetPoint" />
          </mxGeometry>
        </mxCell>
        <mxCell id="da1oWvqafKojglBcWh3I-134" value="Contract" style="rounded=0;whiteSpace=wrap;html=1;labelBackgroundColor=none;" parent="1" vertex="1">
          <mxGeometry x="-280" y="800" width="80" height="40" as="geometry" />
        </mxCell>
        <mxCell id="da1oWvqafKojglBcWh3I-138" value="1" style="text;html=1;align=center;verticalAlign=middle;resizable=0;points=[];autosize=1;strokeColor=none;fillColor=none;labelBackgroundColor=none;" parent="1" vertex="1">
          <mxGeometry x="-270" y="560" width="30" height="30" as="geometry" />
        </mxCell>
        <mxCell id="da1oWvqafKojglBcWh3I-139" value="" style="endArrow=none;html=1;rounded=0;entryX=0.5;entryY=1;entryDx=0;entryDy=0;exitX=0.5;exitY=0;exitDx=0;exitDy=0;labelBackgroundColor=none;fontColor=default;" parent="1" source="da1oWvqafKojglBcWh3I-134" target="da1oWvqafKojglBcWh3I-131" edge="1">
          <mxGeometry width="50" height="50" relative="1" as="geometry">
            <mxPoint x="-180" y="810" as="sourcePoint" />
            <mxPoint x="-130" y="760" as="targetPoint" />
          </mxGeometry>
        </mxCell>
        <mxCell id="da1oWvqafKojglBcWh3I-140" value="1" style="text;html=1;align=center;verticalAlign=middle;resizable=0;points=[];autosize=1;strokeColor=none;fillColor=none;labelBackgroundColor=none;" parent="1" vertex="1">
          <mxGeometry x="-250" y="775" width="30" height="30" as="geometry" />
        </mxCell>
        <mxCell id="da1oWvqafKojglBcWh3I-142" value="Start Date" style="ellipse;whiteSpace=wrap;html=1;labelBackgroundColor=none;" parent="1" vertex="1">
          <mxGeometry x="-375" y="750" width="80" height="40" as="geometry" />
        </mxCell>
        <mxCell id="da1oWvqafKojglBcWh3I-143" value="End Date" style="ellipse;whiteSpace=wrap;html=1;labelBackgroundColor=none;" parent="1" vertex="1">
          <mxGeometry x="-390" y="820" width="80" height="40" as="geometry" />
        </mxCell>
        <mxCell id="da1oWvqafKojglBcWh3I-144" value="Salary" style="ellipse;whiteSpace=wrap;html=1;labelBackgroundColor=none;" parent="1" vertex="1">
          <mxGeometry x="-235" y="870" width="80" height="40" as="geometry" />
        </mxCell>
        <mxCell id="da1oWvqafKojglBcWh3I-145" value="&lt;u&gt;ID&lt;br&gt;&lt;/u&gt;" style="ellipse;whiteSpace=wrap;html=1;labelBackgroundColor=none;" parent="1" vertex="1">
          <mxGeometry x="-175" y="830" width="80" height="40" as="geometry" />
        </mxCell>
        <mxCell id="da1oWvqafKojglBcWh3I-146" value="Description" style="ellipse;whiteSpace=wrap;html=1;labelBackgroundColor=none;" parent="1" vertex="1">
          <mxGeometry x="-340" y="870" width="80" height="40" as="geometry" />
        </mxCell>
        <mxCell id="da1oWvqafKojglBcWh3I-147" value="" style="endArrow=none;html=1;rounded=0;entryX=0.691;entryY=0.034;entryDx=0;entryDy=0;entryPerimeter=0;labelBackgroundColor=none;fontColor=default;" parent="1" source="da1oWvqafKojglBcWh3I-134" target="da1oWvqafKojglBcWh3I-146" edge="1">
          <mxGeometry width="50" height="50" relative="1" as="geometry">
            <mxPoint x="-210" y="760" as="sourcePoint" />
            <mxPoint x="-160" y="710" as="targetPoint" />
          </mxGeometry>
        </mxCell>
        <mxCell id="da1oWvqafKojglBcWh3I-148" value="" style="endArrow=none;html=1;rounded=0;entryX=1;entryY=1;entryDx=0;entryDy=0;exitX=0;exitY=0;exitDx=0;exitDy=0;labelBackgroundColor=none;fontColor=default;" parent="1" source="da1oWvqafKojglBcWh3I-134" target="da1oWvqafKojglBcWh3I-142" edge="1">
          <mxGeometry width="50" height="50" relative="1" as="geometry">
            <mxPoint x="-210" y="760" as="sourcePoint" />
            <mxPoint x="-160" y="710" as="targetPoint" />
          </mxGeometry>
        </mxCell>
        <mxCell id="da1oWvqafKojglBcWh3I-149" value="" style="endArrow=none;html=1;rounded=0;entryX=1;entryY=0.5;entryDx=0;entryDy=0;exitX=0;exitY=0.75;exitDx=0;exitDy=0;labelBackgroundColor=none;fontColor=default;" parent="1" source="da1oWvqafKojglBcWh3I-134" target="da1oWvqafKojglBcWh3I-143" edge="1">
          <mxGeometry width="50" height="50" relative="1" as="geometry">
            <mxPoint x="-210" y="760" as="sourcePoint" />
            <mxPoint x="-160" y="710" as="targetPoint" />
          </mxGeometry>
        </mxCell>
        <mxCell id="da1oWvqafKojglBcWh3I-150" value="" style="endArrow=none;html=1;rounded=0;exitX=0.5;exitY=0;exitDx=0;exitDy=0;entryX=0.75;entryY=1;entryDx=0;entryDy=0;labelBackgroundColor=none;fontColor=default;" parent="1" source="da1oWvqafKojglBcWh3I-144" target="da1oWvqafKojglBcWh3I-134" edge="1">
          <mxGeometry width="50" height="50" relative="1" as="geometry">
            <mxPoint x="-210" y="760" as="sourcePoint" />
            <mxPoint x="-160" y="710" as="targetPoint" />
          </mxGeometry>
        </mxCell>
        <mxCell id="da1oWvqafKojglBcWh3I-151" value="" style="endArrow=none;html=1;rounded=0;entryX=0;entryY=0;entryDx=0;entryDy=0;exitX=1;exitY=0.5;exitDx=0;exitDy=0;labelBackgroundColor=none;fontColor=default;" parent="1" source="da1oWvqafKojglBcWh3I-134" target="da1oWvqafKojglBcWh3I-145" edge="1">
          <mxGeometry width="50" height="50" relative="1" as="geometry">
            <mxPoint x="-210" y="760" as="sourcePoint" />
            <mxPoint x="-160" y="710" as="targetPoint" />
          </mxGeometry>
        </mxCell>
        <mxCell id="da1oWvqafKojglBcWh3I-152" value="Located in" style="rhombus;whiteSpace=wrap;html=1;labelBackgroundColor=none;" parent="1" vertex="1">
          <mxGeometry x="340" y="470" width="100" height="80" as="geometry" />
        </mxCell>
        <mxCell id="da1oWvqafKojglBcWh3I-153" value="" style="shape=link;html=1;rounded=0;exitX=1;exitY=0.5;exitDx=0;exitDy=0;entryX=0;entryY=0.5;entryDx=0;entryDy=0;labelBackgroundColor=none;fontColor=default;" parent="1" source="da1oWvqafKojglBcWh3I-1" target="da1oWvqafKojglBcWh3I-152" edge="1">
          <mxGeometry width="100" relative="1" as="geometry">
            <mxPoint x="380" y="230" as="sourcePoint" />
            <mxPoint x="365" y="530" as="targetPoint" />
          </mxGeometry>
        </mxCell>
        <mxCell id="QSSLg1convwjqRiPNhS1-24" value="1" style="edgeLabel;html=1;align=center;verticalAlign=middle;resizable=0;points=[];labelBackgroundColor=none;" parent="da1oWvqafKojglBcWh3I-153" vertex="1" connectable="0">
          <mxGeometry x="-0.1164" y="6" relative="1" as="geometry">
            <mxPoint x="-26" y="19" as="offset" />
          </mxGeometry>
        </mxCell>
        <mxCell id="QSSLg1convwjqRiPNhS1-34" style="edgeStyle=orthogonalEdgeStyle;rounded=0;orthogonalLoop=1;jettySize=auto;html=1;exitX=1;exitY=0.5;exitDx=0;exitDy=0;entryX=1;entryY=0.5;entryDx=0;entryDy=0;endArrow=none;endFill=0;labelBackgroundColor=none;fontColor=default;" parent="1" source="da1oWvqafKojglBcWh3I-154" target="QSSLg1convwjqRiPNhS1-32" edge="1">
          <mxGeometry relative="1" as="geometry">
            <Array as="points">
              <mxPoint x="900" y="485" />
              <mxPoint x="900" y="850" />
            </Array>
          </mxGeometry>
        </mxCell>
        <mxCell id="QSSLg1convwjqRiPNhS1-39" value="1" style="edgeLabel;html=1;align=center;verticalAlign=middle;resizable=0;points=[];labelBackgroundColor=none;" parent="QSSLg1convwjqRiPNhS1-34" vertex="1" connectable="0">
          <mxGeometry x="-0.9518" y="2" relative="1" as="geometry">
            <mxPoint y="-13" as="offset" />
          </mxGeometry>
        </mxCell>
        <mxCell id="da1oWvqafKojglBcWh3I-154" value="Stadium" style="whiteSpace=wrap;html=1;labelBackgroundColor=none;" parent="1" vertex="1">
          <mxGeometry x="610" y="465" width="80" height="40" as="geometry" />
        </mxCell>
        <mxCell id="da1oWvqafKojglBcWh3I-155" value="" style="shape=link;html=1;rounded=0;entryX=0;entryY=0.5;entryDx=0;entryDy=0;labelBackgroundColor=none;fontColor=default;" parent="1" source="da1oWvqafKojglBcWh3I-152" target="da1oWvqafKojglBcWh3I-154" edge="1">
          <mxGeometry width="100" relative="1" as="geometry">
            <mxPoint x="-30" y="550" as="sourcePoint" />
            <mxPoint x="50" y="550" as="targetPoint" />
          </mxGeometry>
        </mxCell>
        <mxCell id="QSSLg1convwjqRiPNhS1-41" value="1" style="edgeLabel;html=1;align=center;verticalAlign=middle;resizable=0;points=[];labelBackgroundColor=none;" parent="da1oWvqafKojglBcWh3I-155" vertex="1" connectable="0">
          <mxGeometry x="0.8592" y="-4" relative="1" as="geometry">
            <mxPoint x="-3" y="-20" as="offset" />
          </mxGeometry>
        </mxCell>
        <mxCell id="da1oWvqafKojglBcWh3I-158" value="Name" style="ellipse;whiteSpace=wrap;html=1;direction=east;labelBackgroundColor=none;" parent="1" vertex="1">
          <mxGeometry x="545" y="400" width="80" height="40" as="geometry" />
        </mxCell>
        <mxCell id="da1oWvqafKojglBcWh3I-159" value="Capacity" style="ellipse;whiteSpace=wrap;html=1;labelBackgroundColor=none;" parent="1" vertex="1">
          <mxGeometry x="690" y="400" width="70" height="40" as="geometry" />
        </mxCell>
        <mxCell id="da1oWvqafKojglBcWh3I-160" value="Location" style="ellipse;whiteSpace=wrap;html=1;labelBackgroundColor=none;" parent="1" vertex="1">
          <mxGeometry x="530" y="535" width="70" height="40" as="geometry" />
        </mxCell>
        <mxCell id="da1oWvqafKojglBcWh3I-161" value="" style="endArrow=none;html=1;rounded=0;entryX=0.5;entryY=1;entryDx=0;entryDy=0;exitX=0.25;exitY=0;exitDx=0;exitDy=0;labelBackgroundColor=none;fontColor=default;" parent="1" source="da1oWvqafKojglBcWh3I-154" target="da1oWvqafKojglBcWh3I-158" edge="1">
          <mxGeometry width="50" height="50" relative="1" as="geometry">
            <mxPoint x="320" y="180" as="sourcePoint" />
            <mxPoint x="370" y="130" as="targetPoint" />
          </mxGeometry>
        </mxCell>
        <mxCell id="da1oWvqafKojglBcWh3I-162" value="" style="endArrow=none;html=1;rounded=0;exitX=1;exitY=0;exitDx=0;exitDy=0;labelBackgroundColor=none;fontColor=default;" parent="1" source="da1oWvqafKojglBcWh3I-154" target="da1oWvqafKojglBcWh3I-159" edge="1">
          <mxGeometry width="50" height="50" relative="1" as="geometry">
            <mxPoint x="320" y="180" as="sourcePoint" />
            <mxPoint x="370" y="130" as="targetPoint" />
          </mxGeometry>
        </mxCell>
        <mxCell id="da1oWvqafKojglBcWh3I-163" value="" style="endArrow=none;html=1;rounded=0;entryX=0.131;entryY=0.984;entryDx=0;entryDy=0;exitX=0.5;exitY=0;exitDx=0;exitDy=0;entryPerimeter=0;labelBackgroundColor=none;fontColor=default;" parent="1" source="da1oWvqafKojglBcWh3I-160" target="da1oWvqafKojglBcWh3I-154" edge="1">
          <mxGeometry width="50" height="50" relative="1" as="geometry">
            <mxPoint x="320" y="180" as="sourcePoint" />
            <mxPoint x="370" y="130" as="targetPoint" />
          </mxGeometry>
        </mxCell>
        <mxCell id="da1oWvqafKojglBcWh3I-166" value="Plays Away" style="rhombus;whiteSpace=wrap;html=1;labelBackgroundColor=none;" parent="1" vertex="1">
          <mxGeometry x="290" y="630" width="100" height="80" as="geometry" />
        </mxCell>
        <mxCell id="da1oWvqafKojglBcWh3I-167" value="Plays at Home" style="rhombus;whiteSpace=wrap;html=1;labelBackgroundColor=none;" parent="1" vertex="1">
          <mxGeometry x="225" y="680" width="100" height="80" as="geometry" />
        </mxCell>
        <mxCell id="da1oWvqafKojglBcWh3I-168" value="Game" style="rounded=0;whiteSpace=wrap;html=1;labelBackgroundColor=none;" parent="1" vertex="1">
          <mxGeometry x="400" y="720" width="80" height="40" as="geometry" />
        </mxCell>
        <mxCell id="da1oWvqafKojglBcWh3I-169" value="" style="shape=link;html=1;rounded=0;exitX=0.875;exitY=0.625;exitDx=0;exitDy=0;entryX=0;entryY=0.75;entryDx=0;entryDy=0;exitPerimeter=0;labelBackgroundColor=none;fontColor=default;" parent="1" source="da1oWvqafKojglBcWh3I-167" target="da1oWvqafKojglBcWh3I-168" edge="1">
          <mxGeometry width="100" relative="1" as="geometry">
            <mxPoint x="190" y="730" as="sourcePoint" />
            <mxPoint x="290" y="730" as="targetPoint" />
          </mxGeometry>
        </mxCell>
        <mxCell id="da1oWvqafKojglBcWh3I-171" value="" style="shape=link;html=1;rounded=0;exitX=0;exitY=0;exitDx=0;exitDy=0;entryX=1;entryY=1;entryDx=0;entryDy=0;labelBackgroundColor=none;fontColor=default;" parent="1" source="da1oWvqafKojglBcWh3I-168" target="da1oWvqafKojglBcWh3I-166" edge="1">
          <mxGeometry width="100" relative="1" as="geometry">
            <mxPoint x="110" y="570" as="sourcePoint" />
            <mxPoint x="260" y="710" as="targetPoint" />
          </mxGeometry>
        </mxCell>
        <mxCell id="da1oWvqafKojglBcWh3I-172" value="" style="endArrow=none;html=1;rounded=0;entryX=0.75;entryY=1;entryDx=0;entryDy=0;labelBackgroundColor=none;fontColor=default;" parent="1" source="da1oWvqafKojglBcWh3I-167" target="da1oWvqafKojglBcWh3I-1" edge="1">
          <mxGeometry width="50" height="50" relative="1" as="geometry">
            <mxPoint x="210" y="760" as="sourcePoint" />
            <mxPoint x="260" y="710" as="targetPoint" />
          </mxGeometry>
        </mxCell>
        <mxCell id="da1oWvqafKojglBcWh3I-174" value="" style="endArrow=none;html=1;rounded=0;entryX=0.626;entryY=0.98;entryDx=0;entryDy=0;exitX=0.5;exitY=0;exitDx=0;exitDy=0;entryPerimeter=0;labelBackgroundColor=none;fontColor=default;" parent="1" source="da1oWvqafKojglBcWh3I-27" target="da1oWvqafKojglBcWh3I-1" edge="1">
          <mxGeometry width="50" height="50" relative="1" as="geometry">
            <mxPoint x="152.02999999999997" y="514" as="sourcePoint" />
            <mxPoint x="120" y="550" as="targetPoint" />
          </mxGeometry>
        </mxCell>
        <mxCell id="da1oWvqafKojglBcWh3I-175" value="&lt;u&gt;ID&lt;br&gt;&lt;/u&gt;" style="ellipse;whiteSpace=wrap;html=1;labelBackgroundColor=none;" parent="1" vertex="1">
          <mxGeometry x="420" y="650" width="80" height="40" as="geometry" />
        </mxCell>
        <mxCell id="da1oWvqafKojglBcWh3I-178" value="Winner" style="ellipse;whiteSpace=wrap;html=1;labelBackgroundColor=none;" parent="1" vertex="1">
          <mxGeometry x="325" y="820" width="80" height="40" as="geometry" />
        </mxCell>
        <mxCell id="da1oWvqafKojglBcWh3I-181" value="Consist of" style="rhombus;whiteSpace=wrap;html=1;labelBackgroundColor=none;" parent="1" vertex="1">
          <mxGeometry x="390" y="840" width="100" height="80" as="geometry" />
        </mxCell>
        <mxCell id="da1oWvqafKojglBcWh3I-182" value="Points" style="rounded=0;whiteSpace=wrap;html=1;labelBackgroundColor=none;" parent="1" vertex="1">
          <mxGeometry x="400" y="960" width="80" height="40" as="geometry" />
        </mxCell>
        <mxCell id="da1oWvqafKojglBcWh3I-185" value="1" style="text;html=1;align=center;verticalAlign=middle;resizable=0;points=[];autosize=1;strokeColor=none;fillColor=none;labelBackgroundColor=none;" parent="1" vertex="1">
          <mxGeometry x="105" y="555" width="30" height="30" as="geometry" />
        </mxCell>
        <mxCell id="da1oWvqafKojglBcWh3I-186" value="N" style="text;html=1;align=center;verticalAlign=middle;resizable=0;points=[];autosize=1;strokeColor=none;fillColor=none;labelBackgroundColor=none;" parent="1" vertex="1">
          <mxGeometry x="390" y="690" width="30" height="30" as="geometry" />
        </mxCell>
        <mxCell id="da1oWvqafKojglBcWh3I-187" value="N" style="text;html=1;align=center;verticalAlign=middle;resizable=0;points=[];autosize=1;strokeColor=none;fillColor=none;labelBackgroundColor=none;" parent="1" vertex="1">
          <mxGeometry x="370" y="720" width="30" height="30" as="geometry" />
        </mxCell>
        <mxCell id="da1oWvqafKojglBcWh3I-191" value="1" style="text;html=1;align=center;verticalAlign=middle;resizable=0;points=[];autosize=1;strokeColor=none;fillColor=none;labelBackgroundColor=none;" parent="1" vertex="1">
          <mxGeometry x="420" y="755" width="30" height="30" as="geometry" />
        </mxCell>
        <mxCell id="da1oWvqafKojglBcWh3I-198" value="" style="endArrow=none;html=1;rounded=0;entryX=0.25;entryY=1;entryDx=0;entryDy=0;exitX=0.5;exitY=0;exitDx=0;exitDy=0;labelBackgroundColor=none;fontColor=default;" parent="1" source="da1oWvqafKojglBcWh3I-178" target="da1oWvqafKojglBcWh3I-168" edge="1">
          <mxGeometry width="50" height="50" relative="1" as="geometry">
            <mxPoint x="280" y="830" as="sourcePoint" />
            <mxPoint x="330" y="780" as="targetPoint" />
          </mxGeometry>
        </mxCell>
        <mxCell id="da1oWvqafKojglBcWh3I-199" value="" style="endArrow=none;html=1;rounded=0;entryX=0.5;entryY=1;entryDx=0;entryDy=0;exitX=0.25;exitY=0;exitDx=0;exitDy=0;labelBackgroundColor=none;fontColor=default;" parent="1" source="da1oWvqafKojglBcWh3I-168" target="da1oWvqafKojglBcWh3I-175" edge="1">
          <mxGeometry width="50" height="50" relative="1" as="geometry">
            <mxPoint x="380" y="760" as="sourcePoint" />
            <mxPoint x="430" y="710" as="targetPoint" />
          </mxGeometry>
        </mxCell>
        <mxCell id="da1oWvqafKojglBcWh3I-206" value="Away_Points" style="ellipse;whiteSpace=wrap;html=1;labelBackgroundColor=none;" parent="1" vertex="1">
          <mxGeometry x="450" y="1030" width="80" height="40" as="geometry" />
        </mxCell>
        <mxCell id="da1oWvqafKojglBcWh3I-207" value="Home_Points" style="ellipse;whiteSpace=wrap;html=1;labelBackgroundColor=none;" parent="1" vertex="1">
          <mxGeometry x="520" y="970" width="80" height="40" as="geometry" />
        </mxCell>
        <mxCell id="da1oWvqafKojglBcWh3I-215" value="HAS-A" style="rhombus;whiteSpace=wrap;html=1;labelBackgroundColor=none;" parent="1" vertex="1">
          <mxGeometry x="-145" y="380" width="100" height="80" as="geometry" />
        </mxCell>
        <mxCell id="da1oWvqafKojglBcWh3I-217" value="Store" style="rounded=0;whiteSpace=wrap;html=1;labelBackgroundColor=none;" parent="1" vertex="1">
          <mxGeometry x="-280" y="320" width="80" height="40" as="geometry" />
        </mxCell>
        <mxCell id="da1oWvqafKojglBcWh3I-219" value="1" style="text;html=1;align=center;verticalAlign=middle;resizable=0;points=[];autosize=1;strokeColor=none;fillColor=none;labelBackgroundColor=none;" parent="1" vertex="1">
          <mxGeometry x="25" y="480" width="30" height="30" as="geometry" />
        </mxCell>
        <mxCell id="da1oWvqafKojglBcWh3I-220" value="1" style="text;html=1;align=center;verticalAlign=middle;resizable=0;points=[];autosize=1;strokeColor=none;fillColor=none;labelBackgroundColor=none;" parent="1" vertex="1">
          <mxGeometry x="-200" y="350" width="30" height="30" as="geometry" />
        </mxCell>
        <mxCell id="da1oWvqafKojglBcWh3I-221" value="&lt;u&gt;ID&lt;br&gt;&lt;/u&gt;" style="ellipse;whiteSpace=wrap;html=1;labelBackgroundColor=none;" parent="1" vertex="1">
          <mxGeometry x="-285" y="385" width="80" height="40" as="geometry" />
        </mxCell>
        <mxCell id="da1oWvqafKojglBcWh3I-222" value="Name" style="ellipse;whiteSpace=wrap;html=1;labelBackgroundColor=none;" parent="1" vertex="1">
          <mxGeometry x="-240" y="260" width="70" height="40" as="geometry" />
        </mxCell>
        <mxCell id="da1oWvqafKojglBcWh3I-233" value="Ticket" style="rounded=0;whiteSpace=wrap;html=1;labelBackgroundColor=none;" parent="1" vertex="1">
          <mxGeometry x="610" y="600" width="80" height="40" as="geometry" />
        </mxCell>
        <mxCell id="da1oWvqafKojglBcWh3I-234" value="Sells" style="rhombus;whiteSpace=wrap;html=1;labelBackgroundColor=none;" parent="1" vertex="1">
          <mxGeometry x="335" y="555" width="100" height="80" as="geometry" />
        </mxCell>
        <mxCell id="da1oWvqafKojglBcWh3I-235" value="" style="shape=link;html=1;rounded=0;exitX=1;exitY=0.5;exitDx=0;exitDy=0;entryX=0.971;entryY=-0.062;entryDx=0;entryDy=0;entryPerimeter=0;labelBackgroundColor=none;fontColor=default;" parent="1" source="da1oWvqafKojglBcWh3I-234" target="da1oWvqafKojglBcWh3I-238" edge="1">
          <mxGeometry width="100" relative="1" as="geometry">
            <mxPoint x="320" y="620" as="sourcePoint" />
            <mxPoint x="610" y="620" as="targetPoint" />
          </mxGeometry>
        </mxCell>
        <mxCell id="da1oWvqafKojglBcWh3I-236" value="" style="endArrow=none;html=1;rounded=0;entryX=0;entryY=0.5;entryDx=0;entryDy=0;labelBackgroundColor=none;fontColor=default;" parent="1" target="da1oWvqafKojglBcWh3I-234" edge="1">
          <mxGeometry width="50" height="50" relative="1" as="geometry">
            <mxPoint x="120" y="550" as="sourcePoint" />
            <mxPoint x="260" y="560" as="targetPoint" />
          </mxGeometry>
        </mxCell>
        <mxCell id="vwqwgOsk305iZyYUviN2-34" value="1" style="edgeLabel;html=1;align=center;verticalAlign=middle;resizable=0;points=[];labelBackgroundColor=none;" parent="da1oWvqafKojglBcWh3I-236" vertex="1" connectable="0">
          <mxGeometry x="-0.7304" y="1" relative="1" as="geometry">
            <mxPoint x="10" y="-5" as="offset" />
          </mxGeometry>
        </mxCell>
        <mxCell id="da1oWvqafKojglBcWh3I-238" value="N" style="text;html=1;align=center;verticalAlign=middle;resizable=0;points=[];autosize=1;strokeColor=none;fillColor=none;labelBackgroundColor=none;" parent="1" vertex="1">
          <mxGeometry x="570" y="620" width="30" height="30" as="geometry" />
        </mxCell>
        <mxCell id="da1oWvqafKojglBcWh3I-239" value="For" style="rhombus;whiteSpace=wrap;html=1;labelBackgroundColor=none;" parent="1" vertex="1">
          <mxGeometry x="600" y="700" width="100" height="80" as="geometry" />
        </mxCell>
        <mxCell id="da1oWvqafKojglBcWh3I-240" value="" style="endArrow=none;html=1;rounded=0;exitX=1;exitY=0.5;exitDx=0;exitDy=0;labelBackgroundColor=none;fontColor=default;" parent="1" source="da1oWvqafKojglBcWh3I-168" edge="1">
          <mxGeometry width="50" height="50" relative="1" as="geometry">
            <mxPoint x="450" y="800" as="sourcePoint" />
            <mxPoint x="590" y="740" as="targetPoint" />
          </mxGeometry>
        </mxCell>
        <mxCell id="da1oWvqafKojglBcWh3I-242" value="Restantes" style="ellipse;whiteSpace=wrap;html=1;labelBackgroundColor=none;" parent="1" vertex="1">
          <mxGeometry x="760" y="645" width="80" height="40" as="geometry" />
        </mxCell>
        <mxCell id="da1oWvqafKojglBcWh3I-244" value="Price" style="ellipse;whiteSpace=wrap;html=1;labelBackgroundColor=none;" parent="1" vertex="1">
          <mxGeometry x="760" y="585" width="80" height="40" as="geometry" />
        </mxCell>
        <mxCell id="da1oWvqafKojglBcWh3I-245" value="Date" style="ellipse;whiteSpace=wrap;html=1;labelBackgroundColor=none;" parent="1" vertex="1">
          <mxGeometry x="280" y="775" width="80" height="40" as="geometry" />
        </mxCell>
        <mxCell id="da1oWvqafKojglBcWh3I-247" value="Time" style="ellipse;whiteSpace=wrap;html=1;labelBackgroundColor=none;" parent="1" vertex="1">
          <mxGeometry x="510" y="670" width="80" height="40" as="geometry" />
        </mxCell>
        <mxCell id="da1oWvqafKojglBcWh3I-249" value="1" style="text;html=1;align=center;verticalAlign=middle;resizable=0;points=[];autosize=1;strokeColor=none;fillColor=none;labelBackgroundColor=none;" parent="1" vertex="1">
          <mxGeometry x="470" y="720" width="30" height="30" as="geometry" />
        </mxCell>
        <mxCell id="da1oWvqafKojglBcWh3I-252" value="" style="endArrow=none;html=1;rounded=0;exitX=0.927;exitY=0.993;exitDx=0;exitDy=0;exitPerimeter=0;entryX=0.5;entryY=0;entryDx=0;entryDy=0;labelBackgroundColor=none;fontColor=default;" parent="1" source="vwqwgOsk305iZyYUviN2-14" target="VaJHr-X6yvSGsGyUoXcg-4" edge="1">
          <mxGeometry width="50" height="50" relative="1" as="geometry">
            <mxPoint x="480" y="760" as="sourcePoint" />
            <mxPoint x="750" y="710" as="targetPoint" />
          </mxGeometry>
        </mxCell>
        <mxCell id="da1oWvqafKojglBcWh3I-253" value="" style="endArrow=none;html=1;rounded=0;entryX=0.025;entryY=0.346;entryDx=0;entryDy=0;exitX=1;exitY=0.75;exitDx=0;exitDy=0;entryPerimeter=0;labelBackgroundColor=none;fontColor=default;" parent="1" source="vwqwgOsk305iZyYUviN2-14" target="da1oWvqafKojglBcWh3I-242" edge="1">
          <mxGeometry width="50" height="50" relative="1" as="geometry">
            <mxPoint x="660" y="590" as="sourcePoint" />
            <mxPoint x="530" y="710" as="targetPoint" />
          </mxGeometry>
        </mxCell>
        <mxCell id="da1oWvqafKojglBcWh3I-254" value="" style="endArrow=none;html=1;rounded=0;entryX=0;entryY=0.5;entryDx=0;entryDy=0;exitX=0.75;exitY=0;exitDx=0;exitDy=0;labelBackgroundColor=none;fontColor=default;" parent="1" source="da1oWvqafKojglBcWh3I-168" target="da1oWvqafKojglBcWh3I-247" edge="1">
          <mxGeometry width="50" height="50" relative="1" as="geometry">
            <mxPoint x="480" y="760" as="sourcePoint" />
            <mxPoint x="530" y="710" as="targetPoint" />
          </mxGeometry>
        </mxCell>
        <mxCell id="da1oWvqafKojglBcWh3I-255" value="" style="endArrow=none;html=1;rounded=0;entryX=0;entryY=0.5;entryDx=0;entryDy=0;labelBackgroundColor=none;fontColor=default;" parent="1" target="da1oWvqafKojglBcWh3I-244" edge="1">
          <mxGeometry width="50" height="50" relative="1" as="geometry">
            <mxPoint x="700" y="620" as="sourcePoint" />
            <mxPoint x="530" y="710" as="targetPoint" />
          </mxGeometry>
        </mxCell>
        <mxCell id="da1oWvqafKojglBcWh3I-256" value="" style="endArrow=none;html=1;rounded=0;entryX=1;entryY=0;entryDx=0;entryDy=0;exitX=0;exitY=1;exitDx=0;exitDy=0;labelBackgroundColor=none;fontColor=default;" parent="1" source="da1oWvqafKojglBcWh3I-168" target="da1oWvqafKojglBcWh3I-245" edge="1">
          <mxGeometry width="50" height="50" relative="1" as="geometry">
            <mxPoint x="480" y="760" as="sourcePoint" />
            <mxPoint x="530" y="710" as="targetPoint" />
          </mxGeometry>
        </mxCell>
        <mxCell id="da1oWvqafKojglBcWh3I-272" value="&lt;u&gt;ID&lt;/u&gt;" style="ellipse;whiteSpace=wrap;html=1;labelBackgroundColor=none;" parent="1" vertex="1">
          <mxGeometry x="630" y="535" width="80" height="40" as="geometry" />
        </mxCell>
        <mxCell id="da1oWvqafKojglBcWh3I-273" value="" style="endArrow=none;html=1;rounded=0;entryX=0.5;entryY=0;entryDx=0;entryDy=0;exitX=0.5;exitY=1;exitDx=0;exitDy=0;labelBackgroundColor=none;fontColor=default;" parent="1" source="da1oWvqafKojglBcWh3I-154" target="da1oWvqafKojglBcWh3I-272" edge="1">
          <mxGeometry width="50" height="50" relative="1" as="geometry">
            <mxPoint x="670" y="210" as="sourcePoint" />
            <mxPoint x="720" y="160" as="targetPoint" />
          </mxGeometry>
        </mxCell>
        <mxCell id="vwqwgOsk305iZyYUviN2-17" value="" style="endArrow=none;html=1;rounded=0;entryX=0.71;entryY=-0.014;entryDx=0;entryDy=0;entryPerimeter=0;labelBackgroundColor=none;fontColor=default;" parent="1" target="da1oWvqafKojglBcWh3I-250" edge="1">
          <mxGeometry width="50" height="50" relative="1" as="geometry">
            <mxPoint x="650" y="690" as="sourcePoint" />
            <mxPoint x="650" y="650" as="targetPoint" />
          </mxGeometry>
        </mxCell>
        <mxCell id="da1oWvqafKojglBcWh3I-250" value="1" style="text;html=1;align=center;verticalAlign=middle;resizable=0;points=[];autosize=1;strokeColor=none;fillColor=none;labelBackgroundColor=none;" parent="1" vertex="1">
          <mxGeometry x="630" y="650" width="30" height="30" as="geometry" />
        </mxCell>
        <mxCell id="vwqwgOsk305iZyYUviN2-22" value="Standings" style="whiteSpace=wrap;html=1;labelBackgroundColor=none;" parent="1" vertex="1">
          <mxGeometry x="600" y="200" width="80" height="40" as="geometry" />
        </mxCell>
        <mxCell id="vwqwgOsk305iZyYUviN2-23" value="Has" style="rhombus;whiteSpace=wrap;html=1;labelBackgroundColor=none;" parent="1" vertex="1">
          <mxGeometry x="450" y="295" width="100" height="80" as="geometry" />
        </mxCell>
        <mxCell id="vwqwgOsk305iZyYUviN2-32" value="" style="endArrow=none;html=1;rounded=0;exitX=0;exitY=0;exitDx=0;exitDy=0;entryX=0.663;entryY=0.95;entryDx=0;entryDy=0;entryPerimeter=0;labelBackgroundColor=none;fontColor=default;" parent="1" source="vwqwgOsk305iZyYUviN2-28" target="RXQUDwxMUaR0mfYRlFyP-1" edge="1">
          <mxGeometry width="50" height="50" relative="1" as="geometry">
            <mxPoint x="525" y="325" as="sourcePoint" />
            <mxPoint x="578.0100000000002" y="166.98000000000002" as="targetPoint" />
          </mxGeometry>
        </mxCell>
        <mxCell id="vwqwgOsk305iZyYUviN2-37" value="Has" style="rhombus;whiteSpace=wrap;html=1;labelBackgroundColor=none;" parent="1" vertex="1">
          <mxGeometry x="590" y="315" width="100" height="80" as="geometry" />
        </mxCell>
        <mxCell id="vwqwgOsk305iZyYUviN2-39" value="&lt;span&gt;Wins&lt;/span&gt;" style="ellipse;whiteSpace=wrap;html=1;fontStyle=0;labelBackgroundColor=none;" parent="1" vertex="1">
          <mxGeometry x="629" y="110" width="80" height="40" as="geometry" />
        </mxCell>
        <mxCell id="vwqwgOsk305iZyYUviN2-40" value="&lt;span&gt;Losses&lt;/span&gt;" style="ellipse;whiteSpace=wrap;html=1;fontStyle=0;labelBackgroundColor=none;" parent="1" vertex="1">
          <mxGeometry x="710" y="130" width="80" height="40" as="geometry" />
        </mxCell>
        <mxCell id="vwqwgOsk305iZyYUviN2-41" value="" style="endArrow=none;html=1;rounded=0;exitX=0.5;exitY=0;exitDx=0;exitDy=0;entryX=0.5;entryY=1;entryDx=0;entryDy=0;labelBackgroundColor=none;fontColor=default;" parent="1" source="vwqwgOsk305iZyYUviN2-28" target="vwqwgOsk305iZyYUviN2-39" edge="1">
          <mxGeometry width="50" height="50" relative="1" as="geometry">
            <mxPoint x="605" y="310" as="sourcePoint" />
            <mxPoint x="585" y="285" as="targetPoint" />
          </mxGeometry>
        </mxCell>
        <mxCell id="vwqwgOsk305iZyYUviN2-42" value="" style="endArrow=none;html=1;rounded=0;exitX=0.806;exitY=-0.019;exitDx=0;exitDy=0;exitPerimeter=0;entryX=0.221;entryY=0.9;entryDx=0;entryDy=0;entryPerimeter=0;labelBackgroundColor=none;fontColor=default;" parent="1" source="vwqwgOsk305iZyYUviN2-28" target="vwqwgOsk305iZyYUviN2-40" edge="1">
          <mxGeometry width="50" height="50" relative="1" as="geometry">
            <mxPoint x="745" y="295" as="sourcePoint" />
            <mxPoint x="725" y="270" as="targetPoint" />
          </mxGeometry>
        </mxCell>
        <mxCell id="vwqwgOsk305iZyYUviN2-43" value="Points" style="ellipse;whiteSpace=wrap;html=1;fontStyle=0;dashed=1;labelBackgroundColor=none;" parent="1" vertex="1">
          <mxGeometry x="480" y="180" width="80" height="40" as="geometry" />
        </mxCell>
        <mxCell id="vwqwgOsk305iZyYUviN2-44" value="Games_Num" style="ellipse;whiteSpace=wrap;html=1;fontStyle=0;labelBackgroundColor=none;" parent="1" vertex="1">
          <mxGeometry x="750" y="180" width="80" height="40" as="geometry" />
        </mxCell>
        <mxCell id="vwqwgOsk305iZyYUviN2-46" value="" style="endArrow=none;html=1;rounded=0;entryX=0;entryY=0.5;entryDx=0;entryDy=0;exitX=1;exitY=0.5;exitDx=0;exitDy=0;labelBackgroundColor=none;fontColor=default;" parent="1" source="vwqwgOsk305iZyYUviN2-43" target="vwqwgOsk305iZyYUviN2-28" edge="1">
          <mxGeometry width="50" height="50" relative="1" as="geometry">
            <mxPoint x="575" y="335" as="sourcePoint" />
            <mxPoint x="625" y="285" as="targetPoint" />
          </mxGeometry>
        </mxCell>
        <mxCell id="vwqwgOsk305iZyYUviN2-48" value="" style="endArrow=none;html=1;rounded=0;exitX=1;exitY=0.25;exitDx=0;exitDy=0;entryX=0;entryY=0.5;entryDx=0;entryDy=0;labelBackgroundColor=none;fontColor=default;" parent="1" source="vwqwgOsk305iZyYUviN2-28" target="vwqwgOsk305iZyYUviN2-44" edge="1">
          <mxGeometry width="50" height="50" relative="1" as="geometry">
            <mxPoint x="695" y="310" as="sourcePoint" />
            <mxPoint x="737" y="277" as="targetPoint" />
          </mxGeometry>
        </mxCell>
        <mxCell id="vwqwgOsk305iZyYUviN2-51" value="" style="endArrow=none;html=1;rounded=0;labelBackgroundColor=none;fontColor=default;" parent="1" target="vwqwgOsk305iZyYUviN2-49" edge="1">
          <mxGeometry width="50" height="50" relative="1" as="geometry">
            <mxPoint x="-210" y="800" as="sourcePoint" />
            <mxPoint x="-160" y="750" as="targetPoint" />
          </mxGeometry>
        </mxCell>
        <mxCell id="vwqwgOsk305iZyYUviN2-53" value="" style="endArrow=none;html=1;rounded=0;entryX=0;entryY=0.25;entryDx=0;entryDy=0;shape=link;labelBackgroundColor=none;fontColor=default;" parent="1" target="da1oWvqafKojglBcWh3I-37" edge="1">
          <mxGeometry width="50" height="50" relative="1" as="geometry">
            <mxPoint x="-100" y="735" as="sourcePoint" />
            <mxPoint x="-50" y="685" as="targetPoint" />
          </mxGeometry>
        </mxCell>
        <mxCell id="vwqwgOsk305iZyYUviN2-54" value="1" style="edgeLabel;html=1;align=center;verticalAlign=middle;resizable=0;points=[];labelBackgroundColor=none;" parent="vwqwgOsk305iZyYUviN2-53" vertex="1" connectable="0">
          <mxGeometry x="0.2885" y="3" relative="1" as="geometry">
            <mxPoint x="29" as="offset" />
          </mxGeometry>
        </mxCell>
        <mxCell id="vwqwgOsk305iZyYUviN2-55" value="1" style="text;html=1;align=center;verticalAlign=middle;resizable=0;points=[];autosize=1;strokeColor=none;fillColor=none;labelBackgroundColor=none;" parent="1" vertex="1">
          <mxGeometry x="-205" y="785" width="30" height="30" as="geometry" />
        </mxCell>
        <mxCell id="da1oWvqafKojglBcWh3I-10" value="Participates In" style="rhombus;whiteSpace=wrap;html=1;labelBackgroundColor=none;" parent="1" vertex="1">
          <mxGeometry x="190" y="415" width="100" height="80" as="geometry" />
        </mxCell>
        <mxCell id="vwqwgOsk305iZyYUviN2-49" value="HAS-A" style="rhombus;whiteSpace=wrap;html=1;labelBackgroundColor=none;" parent="1" vertex="1">
          <mxGeometry x="-175" y="715" width="100" height="80" as="geometry" />
        </mxCell>
        <mxCell id="da1oWvqafKojglBcWh3I-173" value="" style="endArrow=none;html=1;rounded=0;entryX=1;entryY=1;entryDx=0;entryDy=0;exitX=0;exitY=0;exitDx=0;exitDy=0;labelBackgroundColor=none;fontColor=default;" parent="1" source="da1oWvqafKojglBcWh3I-166" target="da1oWvqafKojglBcWh3I-1" edge="1">
          <mxGeometry width="50" height="50" relative="1" as="geometry">
            <mxPoint x="261.66666666666674" y="708.6666666666667" as="sourcePoint" />
            <mxPoint x="110" y="570" as="targetPoint" />
          </mxGeometry>
        </mxCell>
        <mxCell id="vwqwgOsk305iZyYUviN2-71" value="1" style="edgeLabel;html=1;align=center;verticalAlign=middle;resizable=0;points=[];labelBackgroundColor=none;" parent="da1oWvqafKojglBcWh3I-173" vertex="1" connectable="0">
          <mxGeometry x="0.364" y="2" relative="1" as="geometry">
            <mxPoint x="-16" y="-20" as="offset" />
          </mxGeometry>
        </mxCell>
        <mxCell id="VaJHr-X6yvSGsGyUoXcg-4" value="&lt;span style=&quot;border-bottom: 1px dotted&quot;&gt;Type&lt;/span&gt;" style="ellipse;whiteSpace=wrap;html=1;align=center;labelBackgroundColor=none;" parent="1" vertex="1">
          <mxGeometry x="720" y="705" width="90" height="45" as="geometry" />
        </mxCell>
        <mxCell id="VaJHr-X6yvSGsGyUoXcg-7" value="&lt;span style=&quot;border-bottom: 1px dotted&quot;&gt;ID&lt;/span&gt;" style="ellipse;whiteSpace=wrap;html=1;align=center;labelBackgroundColor=none;" parent="1" vertex="1">
          <mxGeometry x="295" y="1010" width="90" height="45" as="geometry" />
        </mxCell>
        <mxCell id="QSSLg1convwjqRiPNhS1-3" value="Product" style="rounded=0;whiteSpace=wrap;html=1;labelBackgroundColor=none;" parent="1" vertex="1">
          <mxGeometry x="-600" y="320" width="80" height="40" as="geometry" />
        </mxCell>
        <mxCell id="QSSLg1convwjqRiPNhS1-4" value="&lt;u&gt;ID&lt;br&gt;&lt;/u&gt;" style="ellipse;whiteSpace=wrap;html=1;labelBackgroundColor=none;" parent="1" vertex="1">
          <mxGeometry x="-700" y="270" width="80" height="40" as="geometry" />
        </mxCell>
        <mxCell id="QSSLg1convwjqRiPNhS1-5" value="Type" style="ellipse;whiteSpace=wrap;html=1;labelBackgroundColor=none;" parent="1" vertex="1">
          <mxGeometry x="-520" y="245" width="70" height="40" as="geometry" />
        </mxCell>
        <mxCell id="QSSLg1convwjqRiPNhS1-8" value="Size" style="ellipse;whiteSpace=wrap;html=1;labelBackgroundColor=none;" parent="1" vertex="1">
          <mxGeometry x="-530" y="385" width="70" height="40" as="geometry" />
        </mxCell>
        <mxCell id="QSSLg1convwjqRiPNhS1-9" value="Price" style="ellipse;whiteSpace=wrap;html=1;labelBackgroundColor=none;" parent="1" vertex="1">
          <mxGeometry x="-680" y="385" width="70" height="40" as="geometry" />
        </mxCell>
        <mxCell id="QSSLg1convwjqRiPNhS1-12" value="Sells" style="rhombus;whiteSpace=wrap;html=1;labelBackgroundColor=none;" parent="1" vertex="1">
          <mxGeometry x="-440" y="300" width="100" height="80" as="geometry" />
        </mxCell>
        <mxCell id="QSSLg1convwjqRiPNhS1-17" value="" style="endArrow=none;html=1;rounded=0;entryX=0.75;entryY=1;entryDx=0;entryDy=0;exitX=0;exitY=0;exitDx=0;exitDy=0;labelBackgroundColor=none;fontColor=default;" parent="1" source="QSSLg1convwjqRiPNhS1-8" target="QSSLg1convwjqRiPNhS1-11" edge="1">
          <mxGeometry width="50" height="50" relative="1" as="geometry">
            <mxPoint x="-610" y="475" as="sourcePoint" />
            <mxPoint x="-560" y="425" as="targetPoint" />
          </mxGeometry>
        </mxCell>
        <mxCell id="QSSLg1convwjqRiPNhS1-18" value="" style="endArrow=none;html=1;rounded=0;entryX=0.25;entryY=1;entryDx=0;entryDy=0;exitX=1;exitY=0;exitDx=0;exitDy=0;labelBackgroundColor=none;fontColor=default;" parent="1" source="QSSLg1convwjqRiPNhS1-9" target="QSSLg1convwjqRiPNhS1-11" edge="1">
          <mxGeometry width="50" height="50" relative="1" as="geometry">
            <mxPoint x="-580" y="410" as="sourcePoint" />
            <mxPoint x="-525" y="380" as="targetPoint" />
          </mxGeometry>
        </mxCell>
        <mxCell id="QSSLg1convwjqRiPNhS1-19" value="" style="endArrow=none;html=1;rounded=0;entryX=0.75;entryY=0;entryDx=0;entryDy=0;exitX=0.5;exitY=1;exitDx=0;exitDy=0;labelBackgroundColor=none;fontColor=default;" parent="1" source="QSSLg1convwjqRiPNhS1-5" target="QSSLg1convwjqRiPNhS1-11" edge="1">
          <mxGeometry width="50" height="50" relative="1" as="geometry">
            <mxPoint x="-500" y="411" as="sourcePoint" />
            <mxPoint x="-515" y="390" as="targetPoint" />
          </mxGeometry>
        </mxCell>
        <mxCell id="QSSLg1convwjqRiPNhS1-20" value="" style="endArrow=none;html=1;rounded=0;entryX=1;entryY=1;entryDx=0;entryDy=0;exitX=0;exitY=0.25;exitDx=0;exitDy=0;labelBackgroundColor=none;fontColor=default;" parent="1" source="QSSLg1convwjqRiPNhS1-11" target="QSSLg1convwjqRiPNhS1-4" edge="1">
          <mxGeometry width="50" height="50" relative="1" as="geometry">
            <mxPoint x="-490" y="421" as="sourcePoint" />
            <mxPoint x="-505" y="400" as="targetPoint" />
          </mxGeometry>
        </mxCell>
        <mxCell id="QSSLg1convwjqRiPNhS1-25" value="" style="endArrow=none;html=1;rounded=0;entryX=0.098;entryY=0.617;entryDx=0;entryDy=0;exitX=1;exitY=0.5;exitDx=0;exitDy=0;entryPerimeter=0;labelBackgroundColor=none;fontColor=default;" parent="1" source="da1oWvqafKojglBcWh3I-12" target="vwqwgOsk305iZyYUviN2-29" edge="1">
          <mxGeometry width="50" height="50" relative="1" as="geometry">
            <mxPoint x="275" y="395" as="sourcePoint" />
            <mxPoint x="310" y="350" as="targetPoint" />
          </mxGeometry>
        </mxCell>
        <mxCell id="QSSLg1convwjqRiPNhS1-38" value="1" style="edgeLabel;html=1;align=center;verticalAlign=middle;resizable=0;points=[];labelBackgroundColor=none;" parent="QSSLg1convwjqRiPNhS1-25" vertex="1" connectable="0">
          <mxGeometry x="-0.4406" y="-1" relative="1" as="geometry">
            <mxPoint x="-8" y="-8" as="offset" />
          </mxGeometry>
        </mxCell>
        <mxCell id="QSSLg1convwjqRiPNhS1-27" value="" style="endArrow=none;html=1;rounded=0;entryX=0;entryY=0.75;entryDx=0;entryDy=0;exitX=1;exitY=0;exitDx=0;exitDy=0;shape=link;labelBackgroundColor=none;fontColor=default;" parent="1" source="vwqwgOsk305iZyYUviN2-29" target="vwqwgOsk305iZyYUviN2-28" edge="1">
          <mxGeometry width="50" height="50" relative="1" as="geometry">
            <mxPoint x="275" y="410" as="sourcePoint" />
            <mxPoint x="310" y="350" as="targetPoint" />
          </mxGeometry>
        </mxCell>
        <mxCell id="QSSLg1convwjqRiPNhS1-37" value="N" style="edgeLabel;html=1;align=center;verticalAlign=middle;resizable=0;points=[];labelBackgroundColor=none;" parent="QSSLg1convwjqRiPNhS1-27" vertex="1" connectable="0">
          <mxGeometry x="0.561" y="-4" relative="1" as="geometry">
            <mxPoint x="-10" y="-14" as="offset" />
          </mxGeometry>
        </mxCell>
        <mxCell id="QSSLg1convwjqRiPNhS1-29" value="" style="endArrow=none;html=1;rounded=0;entryX=0;entryY=1;entryDx=0;entryDy=0;labelBackgroundColor=none;fontColor=default;" parent="1" target="vwqwgOsk305iZyYUviN2-37" edge="1">
          <mxGeometry width="50" height="50" relative="1" as="geometry">
            <mxPoint x="120" y="530" as="sourcePoint" />
            <mxPoint x="462" y="357" as="targetPoint" />
            <Array as="points">
              <mxPoint x="380" y="460" />
            </Array>
          </mxGeometry>
        </mxCell>
        <mxCell id="QSSLg1convwjqRiPNhS1-35" value="1" style="edgeLabel;html=1;align=center;verticalAlign=middle;resizable=0;points=[];labelBackgroundColor=none;" parent="QSSLg1convwjqRiPNhS1-29" vertex="1" connectable="0">
          <mxGeometry x="-0.7662" y="2" relative="1" as="geometry">
            <mxPoint x="-13" y="-7" as="offset" />
          </mxGeometry>
        </mxCell>
        <mxCell id="QSSLg1convwjqRiPNhS1-32" value="At" style="rhombus;whiteSpace=wrap;html=1;labelBackgroundColor=none;" parent="1" vertex="1">
          <mxGeometry x="545" y="810" width="100" height="80" as="geometry" />
        </mxCell>
        <mxCell id="QSSLg1convwjqRiPNhS1-33" value="" style="endArrow=none;html=1;rounded=0;entryX=1;entryY=1;entryDx=0;entryDy=0;exitX=0;exitY=0;exitDx=0;exitDy=0;shape=link;labelBackgroundColor=none;fontColor=default;" parent="1" source="QSSLg1convwjqRiPNhS1-32" target="da1oWvqafKojglBcWh3I-168" edge="1">
          <mxGeometry width="50" height="50" relative="1" as="geometry">
            <mxPoint x="420" y="770" as="sourcePoint" />
            <mxPoint x="470" y="720" as="targetPoint" />
          </mxGeometry>
        </mxCell>
        <mxCell id="QSSLg1convwjqRiPNhS1-40" value="N" style="edgeLabel;html=1;align=center;verticalAlign=middle;resizable=0;points=[];rotation=0;labelBackgroundColor=none;" parent="QSSLg1convwjqRiPNhS1-33" vertex="1" connectable="0">
          <mxGeometry x="0.7292" y="2" relative="1" as="geometry">
            <mxPoint x="-6" y="4" as="offset" />
          </mxGeometry>
        </mxCell>
        <mxCell id="nruTdrHxlbnIHObhs4---11" value="Name" style="ellipse;whiteSpace=wrap;html=1;labelBackgroundColor=none;" parent="1" vertex="1">
          <mxGeometry x="-610" y="240" width="70" height="40" as="geometry" />
        </mxCell>
        <mxCell id="nruTdrHxlbnIHObhs4---12" value="" style="endArrow=none;html=1;rounded=0;entryX=0.427;entryY=-0.014;entryDx=0;entryDy=0;exitX=0.5;exitY=1;exitDx=0;exitDy=0;entryPerimeter=0;labelBackgroundColor=none;fontColor=default;" parent="1" source="nruTdrHxlbnIHObhs4---11" target="QSSLg1convwjqRiPNhS1-11" edge="1">
          <mxGeometry width="50" height="50" relative="1" as="geometry">
            <mxPoint x="-475" y="295" as="sourcePoint" />
            <mxPoint x="-525" y="320" as="targetPoint" />
          </mxGeometry>
        </mxCell>
        <mxCell id="DlQMh5f5OhYwJNWLFFVG-10" style="edgeStyle=orthogonalEdgeStyle;rounded=0;orthogonalLoop=1;jettySize=auto;html=1;exitX=0.5;exitY=0;exitDx=0;exitDy=0;exitPerimeter=0;entryX=0.5;entryY=0;entryDx=0;entryDy=0;endArrow=none;endFill=0;labelBackgroundColor=none;fontColor=default;" parent="1" source="DlQMh5f5OhYwJNWLFFVG-4" target="DlQMh5f5OhYwJNWLFFVG-9" edge="1">
          <mxGeometry relative="1" as="geometry" />
        </mxCell>
        <mxCell id="DlQMh5f5OhYwJNWLFFVG-4" value="" style="strokeWidth=2;html=1;shape=mxgraph.flowchart.extract_or_measurement;whiteSpace=wrap;rotation=-180;verticalAlign=middle;labelBackgroundColor=none;" parent="1" vertex="1">
          <mxGeometry x="-287.5" y="970" width="95" height="60" as="geometry" />
        </mxCell>
        <mxCell id="DlQMh5f5OhYwJNWLFFVG-5" value="IS-A" style="text;html=1;align=center;verticalAlign=middle;resizable=0;points=[];autosize=1;strokeColor=none;fillColor=none;labelBackgroundColor=none;" parent="1" vertex="1">
          <mxGeometry x="-265" y="975" width="50" height="30" as="geometry" />
        </mxCell>
        <mxCell id="DlQMh5f5OhYwJNWLFFVG-9" value="Person" style="rounded=0;whiteSpace=wrap;html=1;labelBackgroundColor=none;" parent="1" vertex="1">
          <mxGeometry x="-280" y="1070" width="80" height="40" as="geometry" />
        </mxCell>
        <mxCell id="DlQMh5f5OhYwJNWLFFVG-11" value="Age" style="ellipse;whiteSpace=wrap;html=1;labelBackgroundColor=none;" parent="1" vertex="1">
          <mxGeometry x="-400" y="1120" width="80" height="40" as="geometry" />
        </mxCell>
        <mxCell id="DlQMh5f5OhYwJNWLFFVG-12" value="Name" style="ellipse;whiteSpace=wrap;html=1;labelBackgroundColor=none;" parent="1" vertex="1">
          <mxGeometry x="-300" y="1160" width="80" height="40" as="geometry" />
        </mxCell>
        <mxCell id="DlQMh5f5OhYwJNWLFFVG-13" value="CC Number" style="ellipse;whiteSpace=wrap;html=1;fontStyle=4;labelBackgroundColor=none;" parent="1" vertex="1">
          <mxGeometry x="-192.5" y="1130" width="80" height="40" as="geometry" />
        </mxCell>
        <mxCell id="DlQMh5f5OhYwJNWLFFVG-14" value="" style="endArrow=none;html=1;rounded=0;exitX=0.65;exitY=-0.025;exitDx=0;exitDy=0;exitPerimeter=0;entryX=0;entryY=0.5;entryDx=0;entryDy=0;labelBackgroundColor=none;fontColor=default;" parent="1" source="DlQMh5f5OhYwJNWLFFVG-11" target="DlQMh5f5OhYwJNWLFFVG-9" edge="1">
          <mxGeometry width="50" height="50" relative="1" as="geometry">
            <mxPoint x="-360" y="1090" as="sourcePoint" />
            <mxPoint x="-310" y="1040" as="targetPoint" />
          </mxGeometry>
        </mxCell>
        <mxCell id="DlQMh5f5OhYwJNWLFFVG-15" value="" style="endArrow=none;html=1;rounded=0;exitX=0.5;exitY=0;exitDx=0;exitDy=0;entryX=0.25;entryY=1;entryDx=0;entryDy=0;labelBackgroundColor=none;fontColor=default;" parent="1" source="DlQMh5f5OhYwJNWLFFVG-12" target="DlQMh5f5OhYwJNWLFFVG-9" edge="1">
          <mxGeometry width="50" height="50" relative="1" as="geometry">
            <mxPoint x="-338" y="1129" as="sourcePoint" />
            <mxPoint x="-270" y="1100" as="targetPoint" />
          </mxGeometry>
        </mxCell>
        <mxCell id="DlQMh5f5OhYwJNWLFFVG-16" value="" style="endArrow=none;html=1;rounded=0;exitX=0;exitY=0;exitDx=0;exitDy=0;entryX=0.75;entryY=1;entryDx=0;entryDy=0;labelBackgroundColor=none;fontColor=default;" parent="1" source="DlQMh5f5OhYwJNWLFFVG-13" target="DlQMh5f5OhYwJNWLFFVG-9" edge="1">
          <mxGeometry width="50" height="50" relative="1" as="geometry">
            <mxPoint x="-328" y="1139" as="sourcePoint" />
            <mxPoint x="-260" y="1110" as="targetPoint" />
          </mxGeometry>
        </mxCell>
        <mxCell id="fqlg9fqf1xDDoRxvzRg2-1" value="Individual Statistics" style="rounded=0;whiteSpace=wrap;html=1;labelBackgroundColor=none;" parent="1" vertex="1">
          <mxGeometry x="339" y="1110" width="80" height="40" as="geometry" />
        </mxCell>
        <mxCell id="fqlg9fqf1xDDoRxvzRg2-4" value="Made_By" style="rhombus;whiteSpace=wrap;html=1;labelBackgroundColor=none;" parent="1" vertex="1">
          <mxGeometry x="170" y="950" width="100" height="80" as="geometry" />
        </mxCell>
        <mxCell id="fqlg9fqf1xDDoRxvzRg2-6" value="At" style="rhombus;whiteSpace=wrap;html=1;labelBackgroundColor=none;" parent="1" vertex="1">
          <mxGeometry x="610" y="1040" width="100" height="80" as="geometry" />
        </mxCell>
        <mxCell id="fqlg9fqf1xDDoRxvzRg2-16" value="Points" style="ellipse;whiteSpace=wrap;html=1;labelBackgroundColor=none;" parent="1" vertex="1">
          <mxGeometry x="230" y="1100" width="60" height="30" as="geometry" />
        </mxCell>
        <mxCell id="fqlg9fqf1xDDoRxvzRg2-17" value="Assists" style="ellipse;whiteSpace=wrap;html=1;labelBackgroundColor=none;" parent="1" vertex="1">
          <mxGeometry x="310" y="1210" width="60" height="30" as="geometry" />
        </mxCell>
        <mxCell id="fqlg9fqf1xDDoRxvzRg2-18" value="Blocks" style="ellipse;whiteSpace=wrap;html=1;labelBackgroundColor=none;" parent="1" vertex="1">
          <mxGeometry x="220" y="1150" width="60" height="30" as="geometry" />
        </mxCell>
        <mxCell id="fqlg9fqf1xDDoRxvzRg2-19" value="Rebounds" style="ellipse;whiteSpace=wrap;html=1;labelBackgroundColor=none;" parent="1" vertex="1">
          <mxGeometry x="400" y="1210" width="60" height="30" as="geometry" />
        </mxCell>
        <mxCell id="fqlg9fqf1xDDoRxvzRg2-20" value="Steals" style="ellipse;whiteSpace=wrap;html=1;labelBackgroundColor=none;" parent="1" vertex="1">
          <mxGeometry x="225" y="1200" width="60" height="30" as="geometry" />
        </mxCell>
        <mxCell id="fqlg9fqf1xDDoRxvzRg2-23" value="FG%" style="ellipse;whiteSpace=wrap;html=1;labelBackgroundColor=none;" parent="1" vertex="1">
          <mxGeometry x="500" y="1150" width="60" height="30" as="geometry" />
        </mxCell>
        <mxCell id="fqlg9fqf1xDDoRxvzRg2-24" value="3PT%" style="ellipse;whiteSpace=wrap;html=1;labelBackgroundColor=none;" parent="1" vertex="1">
          <mxGeometry x="480" y="1190" width="60" height="30" as="geometry" />
        </mxCell>
        <mxCell id="fqlg9fqf1xDDoRxvzRg2-25" style="edgeStyle=orthogonalEdgeStyle;rounded=0;orthogonalLoop=1;jettySize=auto;html=1;exitX=0.5;exitY=1;exitDx=0;exitDy=0;labelBackgroundColor=none;fontColor=default;" parent="1" source="fqlg9fqf1xDDoRxvzRg2-23" target="fqlg9fqf1xDDoRxvzRg2-23" edge="1">
          <mxGeometry relative="1" as="geometry" />
        </mxCell>
        <mxCell id="fqlg9fqf1xDDoRxvzRg2-26" value="" style="endArrow=none;html=1;rounded=0;exitX=1;exitY=0.5;exitDx=0;exitDy=0;entryX=0;entryY=0.5;entryDx=0;entryDy=0;labelBackgroundColor=none;fontColor=default;" parent="1" source="fqlg9fqf1xDDoRxvzRg2-16" target="fqlg9fqf1xDDoRxvzRg2-10" edge="1">
          <mxGeometry width="50" height="50" relative="1" as="geometry">
            <mxPoint x="270" y="1050" as="sourcePoint" />
            <mxPoint x="320" y="1000" as="targetPoint" />
          </mxGeometry>
        </mxCell>
        <mxCell id="fqlg9fqf1xDDoRxvzRg2-27" value="" style="endArrow=none;html=1;rounded=0;exitX=1;exitY=0.5;exitDx=0;exitDy=0;entryX=0;entryY=0.75;entryDx=0;entryDy=0;labelBackgroundColor=none;fontColor=default;" parent="1" source="fqlg9fqf1xDDoRxvzRg2-18" target="fqlg9fqf1xDDoRxvzRg2-10" edge="1">
          <mxGeometry width="50" height="50" relative="1" as="geometry">
            <mxPoint x="300" y="1125" as="sourcePoint" />
            <mxPoint x="339" y="1140" as="targetPoint" />
          </mxGeometry>
        </mxCell>
        <mxCell id="fqlg9fqf1xDDoRxvzRg2-28" value="" style="endArrow=none;html=1;rounded=0;exitX=1;exitY=0;exitDx=0;exitDy=0;entryX=0;entryY=1;entryDx=0;entryDy=0;labelBackgroundColor=none;fontColor=default;" parent="1" source="fqlg9fqf1xDDoRxvzRg2-20" target="fqlg9fqf1xDDoRxvzRg2-10" edge="1">
          <mxGeometry width="50" height="50" relative="1" as="geometry">
            <mxPoint x="310" y="1135" as="sourcePoint" />
            <mxPoint x="349" y="1150" as="targetPoint" />
          </mxGeometry>
        </mxCell>
        <mxCell id="fqlg9fqf1xDDoRxvzRg2-29" value="" style="endArrow=none;html=1;rounded=0;exitX=0.5;exitY=0;exitDx=0;exitDy=0;entryX=0.25;entryY=1;entryDx=0;entryDy=0;labelBackgroundColor=none;fontColor=default;" parent="1" source="fqlg9fqf1xDDoRxvzRg2-17" target="fqlg9fqf1xDDoRxvzRg2-10" edge="1">
          <mxGeometry width="50" height="50" relative="1" as="geometry">
            <mxPoint x="320" y="1145" as="sourcePoint" />
            <mxPoint x="359" y="1160" as="targetPoint" />
          </mxGeometry>
        </mxCell>
        <mxCell id="fqlg9fqf1xDDoRxvzRg2-30" value="" style="endArrow=none;html=1;rounded=0;exitX=0.281;exitY=-0.087;exitDx=0;exitDy=0;entryX=0.75;entryY=1;entryDx=0;entryDy=0;exitPerimeter=0;labelBackgroundColor=none;fontColor=default;" parent="1" source="fqlg9fqf1xDDoRxvzRg2-19" target="fqlg9fqf1xDDoRxvzRg2-10" edge="1">
          <mxGeometry width="50" height="50" relative="1" as="geometry">
            <mxPoint x="330" y="1155" as="sourcePoint" />
            <mxPoint x="369" y="1170" as="targetPoint" />
          </mxGeometry>
        </mxCell>
        <mxCell id="fqlg9fqf1xDDoRxvzRg2-31" value="" style="endArrow=none;html=1;rounded=0;exitX=0;exitY=0;exitDx=0;exitDy=0;entryX=1;entryY=1;entryDx=0;entryDy=0;labelBackgroundColor=none;fontColor=default;" parent="1" source="fqlg9fqf1xDDoRxvzRg2-24" target="fqlg9fqf1xDDoRxvzRg2-10" edge="1">
          <mxGeometry width="50" height="50" relative="1" as="geometry">
            <mxPoint x="340" y="1165" as="sourcePoint" />
            <mxPoint x="379" y="1180" as="targetPoint" />
          </mxGeometry>
        </mxCell>
        <mxCell id="fqlg9fqf1xDDoRxvzRg2-32" value="" style="endArrow=none;html=1;rounded=0;exitX=0;exitY=0.5;exitDx=0;exitDy=0;entryX=1;entryY=0.75;entryDx=0;entryDy=0;labelBackgroundColor=none;fontColor=default;" parent="1" source="fqlg9fqf1xDDoRxvzRg2-23" target="fqlg9fqf1xDDoRxvzRg2-10" edge="1">
          <mxGeometry width="50" height="50" relative="1" as="geometry">
            <mxPoint x="350" y="1175" as="sourcePoint" />
            <mxPoint x="389" y="1190" as="targetPoint" />
          </mxGeometry>
        </mxCell>
        <mxCell id="RXQUDwxMUaR0mfYRlFyP-1" value="Position" style="ellipse;whiteSpace=wrap;html=1;fontStyle=0;dashed=1;labelBackgroundColor=none;" parent="1" vertex="1">
          <mxGeometry x="520" y="120" width="80" height="40" as="geometry" />
        </mxCell>
      </root>
    </mxGraphModel>
  </diagram>
</mxfile>
